<mxfile host="app.diagrams.net" agent="Mozilla/5.0 (Windows NT 10.0; Win64; x64) AppleWebKit/537.36 (KHTML, like Gecko) Chrome/130.0.0.0 Safari/537.36" version="24.8.3">
  <diagram name="Page-1" id="MRW0YNoCXryZtHC1CFLY">
    <mxGraphModel dx="2131" dy="702" grid="1" gridSize="10" guides="1" tooltips="1" connect="1" arrows="1" fold="1" page="1" pageScale="1" pageWidth="827" pageHeight="1169" math="0" shadow="0">
      <root>
        <mxCell id="0" />
        <mxCell id="1" parent="0" />
        <mxCell id="mauJUShE3Ou6oU76Z420-1" value="SKILLS" style="shape=table;startSize=30;container=1;collapsible=1;childLayout=tableLayout;fixedRows=1;rowLines=0;fontStyle=1;align=center;resizeLast=1;html=1;" vertex="1" parent="1">
          <mxGeometry x="196" y="153" width="180" height="220" as="geometry" />
        </mxCell>
        <mxCell id="mauJUShE3Ou6oU76Z420-2" value="" style="shape=tableRow;horizontal=0;startSize=0;swimlaneHead=0;swimlaneBody=0;fillColor=none;collapsible=0;dropTarget=0;points=[[0,0.5],[1,0.5]];portConstraint=eastwest;top=0;left=0;right=0;bottom=1;" vertex="1" parent="mauJUShE3Ou6oU76Z420-1">
          <mxGeometry y="30" width="180" height="30" as="geometry" />
        </mxCell>
        <mxCell id="mauJUShE3Ou6oU76Z420-3" value="PK" style="shape=partialRectangle;connectable=0;fillColor=none;top=0;left=0;bottom=0;right=0;fontStyle=1;overflow=hidden;whiteSpace=wrap;html=1;" vertex="1" parent="mauJUShE3Ou6oU76Z420-2">
          <mxGeometry width="30" height="30" as="geometry">
            <mxRectangle width="30" height="30" as="alternateBounds" />
          </mxGeometry>
        </mxCell>
        <mxCell id="mauJUShE3Ou6oU76Z420-4" value="SKILL_ID" style="shape=partialRectangle;connectable=0;fillColor=none;top=0;left=0;bottom=0;right=0;align=left;spacingLeft=6;fontStyle=5;overflow=hidden;whiteSpace=wrap;html=1;" vertex="1" parent="mauJUShE3Ou6oU76Z420-2">
          <mxGeometry x="30" width="150" height="30" as="geometry">
            <mxRectangle width="150" height="30" as="alternateBounds" />
          </mxGeometry>
        </mxCell>
        <mxCell id="mauJUShE3Ou6oU76Z420-5" value="" style="shape=tableRow;horizontal=0;startSize=0;swimlaneHead=0;swimlaneBody=0;fillColor=none;collapsible=0;dropTarget=0;points=[[0,0.5],[1,0.5]];portConstraint=eastwest;top=0;left=0;right=0;bottom=0;" vertex="1" parent="mauJUShE3Ou6oU76Z420-1">
          <mxGeometry y="60" width="180" height="30" as="geometry" />
        </mxCell>
        <mxCell id="mauJUShE3Ou6oU76Z420-6" value="S1" style="shape=partialRectangle;connectable=0;fillColor=none;top=0;left=0;bottom=0;right=0;editable=1;overflow=hidden;whiteSpace=wrap;html=1;" vertex="1" parent="mauJUShE3Ou6oU76Z420-5">
          <mxGeometry width="30" height="30" as="geometry">
            <mxRectangle width="30" height="30" as="alternateBounds" />
          </mxGeometry>
        </mxCell>
        <mxCell id="mauJUShE3Ou6oU76Z420-7" value="Phyton" style="shape=partialRectangle;connectable=0;fillColor=none;top=0;left=0;bottom=0;right=0;align=left;spacingLeft=6;overflow=hidden;whiteSpace=wrap;html=1;" vertex="1" parent="mauJUShE3Ou6oU76Z420-5">
          <mxGeometry x="30" width="150" height="30" as="geometry">
            <mxRectangle width="150" height="30" as="alternateBounds" />
          </mxGeometry>
        </mxCell>
        <mxCell id="mauJUShE3Ou6oU76Z420-8" value="" style="shape=tableRow;horizontal=0;startSize=0;swimlaneHead=0;swimlaneBody=0;fillColor=none;collapsible=0;dropTarget=0;points=[[0,0.5],[1,0.5]];portConstraint=eastwest;top=0;left=0;right=0;bottom=0;" vertex="1" parent="mauJUShE3Ou6oU76Z420-1">
          <mxGeometry y="90" width="180" height="30" as="geometry" />
        </mxCell>
        <mxCell id="mauJUShE3Ou6oU76Z420-9" value="S2" style="shape=partialRectangle;connectable=0;fillColor=none;top=0;left=0;bottom=0;right=0;editable=1;overflow=hidden;whiteSpace=wrap;html=1;" vertex="1" parent="mauJUShE3Ou6oU76Z420-8">
          <mxGeometry width="30" height="30" as="geometry">
            <mxRectangle width="30" height="30" as="alternateBounds" />
          </mxGeometry>
        </mxCell>
        <mxCell id="mauJUShE3Ou6oU76Z420-10" value="SQL" style="shape=partialRectangle;connectable=0;fillColor=none;top=0;left=0;bottom=0;right=0;align=left;spacingLeft=6;overflow=hidden;whiteSpace=wrap;html=1;" vertex="1" parent="mauJUShE3Ou6oU76Z420-8">
          <mxGeometry x="30" width="150" height="30" as="geometry">
            <mxRectangle width="150" height="30" as="alternateBounds" />
          </mxGeometry>
        </mxCell>
        <mxCell id="mauJUShE3Ou6oU76Z420-11" value="" style="shape=tableRow;horizontal=0;startSize=0;swimlaneHead=0;swimlaneBody=0;fillColor=none;collapsible=0;dropTarget=0;points=[[0,0.5],[1,0.5]];portConstraint=eastwest;top=0;left=0;right=0;bottom=0;" vertex="1" parent="mauJUShE3Ou6oU76Z420-1">
          <mxGeometry y="120" width="180" height="30" as="geometry" />
        </mxCell>
        <mxCell id="mauJUShE3Ou6oU76Z420-12" value="S3" style="shape=partialRectangle;connectable=0;fillColor=none;top=0;left=0;bottom=0;right=0;editable=1;overflow=hidden;whiteSpace=wrap;html=1;" vertex="1" parent="mauJUShE3Ou6oU76Z420-11">
          <mxGeometry width="30" height="30" as="geometry">
            <mxRectangle width="30" height="30" as="alternateBounds" />
          </mxGeometry>
        </mxCell>
        <mxCell id="mauJUShE3Ou6oU76Z420-13" value="JAVA" style="shape=partialRectangle;connectable=0;fillColor=none;top=0;left=0;bottom=0;right=0;align=left;spacingLeft=6;overflow=hidden;whiteSpace=wrap;html=1;" vertex="1" parent="mauJUShE3Ou6oU76Z420-11">
          <mxGeometry x="30" width="150" height="30" as="geometry">
            <mxRectangle width="150" height="30" as="alternateBounds" />
          </mxGeometry>
        </mxCell>
        <mxCell id="mauJUShE3Ou6oU76Z420-14" value="C++" style="shape=partialRectangle;connectable=0;fillColor=none;top=0;left=0;bottom=0;right=0;align=left;spacingLeft=6;overflow=hidden;whiteSpace=wrap;html=1;" vertex="1" parent="1">
          <mxGeometry x="226" y="302" width="150" height="30" as="geometry">
            <mxRectangle width="150" height="30" as="alternateBounds" />
          </mxGeometry>
        </mxCell>
        <mxCell id="mauJUShE3Ou6oU76Z420-15" value="C#" style="shape=partialRectangle;connectable=0;fillColor=none;top=0;left=0;bottom=0;right=0;align=left;spacingLeft=6;overflow=hidden;whiteSpace=wrap;html=1;" vertex="1" parent="1">
          <mxGeometry x="226" y="322" width="150" height="30" as="geometry">
            <mxRectangle width="150" height="30" as="alternateBounds" />
          </mxGeometry>
        </mxCell>
        <mxCell id="mauJUShE3Ou6oU76Z420-16" value="R" style="shape=partialRectangle;connectable=0;fillColor=none;top=0;left=0;bottom=0;right=0;align=left;spacingLeft=6;overflow=hidden;whiteSpace=wrap;html=1;" vertex="1" parent="1">
          <mxGeometry x="226" y="342" width="150" height="30" as="geometry">
            <mxRectangle width="150" height="30" as="alternateBounds" />
          </mxGeometry>
        </mxCell>
        <mxCell id="mauJUShE3Ou6oU76Z420-17" value="INSTRUCTOR" style="shape=table;startSize=30;container=1;collapsible=1;childLayout=tableLayout;fixedRows=1;rowLines=0;fontStyle=1;align=center;resizeLast=1;html=1;" vertex="1" parent="1">
          <mxGeometry x="411" y="160" width="180" height="150" as="geometry" />
        </mxCell>
        <mxCell id="mauJUShE3Ou6oU76Z420-18" value="" style="shape=tableRow;horizontal=0;startSize=0;swimlaneHead=0;swimlaneBody=0;fillColor=none;collapsible=0;dropTarget=0;points=[[0,0.5],[1,0.5]];portConstraint=eastwest;top=0;left=0;right=0;bottom=1;" vertex="1" parent="mauJUShE3Ou6oU76Z420-17">
          <mxGeometry y="30" width="180" height="30" as="geometry" />
        </mxCell>
        <mxCell id="mauJUShE3Ou6oU76Z420-19" value="PK" style="shape=partialRectangle;connectable=0;fillColor=none;top=0;left=0;bottom=0;right=0;fontStyle=1;overflow=hidden;whiteSpace=wrap;html=1;" vertex="1" parent="mauJUShE3Ou6oU76Z420-18">
          <mxGeometry width="30" height="30" as="geometry">
            <mxRectangle width="30" height="30" as="alternateBounds" />
          </mxGeometry>
        </mxCell>
        <mxCell id="mauJUShE3Ou6oU76Z420-20" value="INST_ID" style="shape=partialRectangle;connectable=0;fillColor=none;top=0;left=0;bottom=0;right=0;align=left;spacingLeft=6;fontStyle=5;overflow=hidden;whiteSpace=wrap;html=1;" vertex="1" parent="mauJUShE3Ou6oU76Z420-18">
          <mxGeometry x="30" width="150" height="30" as="geometry">
            <mxRectangle width="150" height="30" as="alternateBounds" />
          </mxGeometry>
        </mxCell>
        <mxCell id="mauJUShE3Ou6oU76Z420-21" value="" style="shape=tableRow;horizontal=0;startSize=0;swimlaneHead=0;swimlaneBody=0;fillColor=none;collapsible=0;dropTarget=0;points=[[0,0.5],[1,0.5]];portConstraint=eastwest;top=0;left=0;right=0;bottom=0;" vertex="1" parent="mauJUShE3Ou6oU76Z420-17">
          <mxGeometry y="60" width="180" height="30" as="geometry" />
        </mxCell>
        <mxCell id="mauJUShE3Ou6oU76Z420-22" value="i1" style="shape=partialRectangle;connectable=0;fillColor=none;top=0;left=0;bottom=0;right=0;editable=1;overflow=hidden;whiteSpace=wrap;html=1;" vertex="1" parent="mauJUShE3Ou6oU76Z420-21">
          <mxGeometry width="30" height="30" as="geometry">
            <mxRectangle width="30" height="30" as="alternateBounds" />
          </mxGeometry>
        </mxCell>
        <mxCell id="mauJUShE3Ou6oU76Z420-23" value="Dr. John doe" style="shape=partialRectangle;connectable=0;fillColor=none;top=0;left=0;bottom=0;right=0;align=left;spacingLeft=6;overflow=hidden;whiteSpace=wrap;html=1;" vertex="1" parent="mauJUShE3Ou6oU76Z420-21">
          <mxGeometry x="30" width="150" height="30" as="geometry">
            <mxRectangle width="150" height="30" as="alternateBounds" />
          </mxGeometry>
        </mxCell>
        <mxCell id="mauJUShE3Ou6oU76Z420-24" value="" style="shape=tableRow;horizontal=0;startSize=0;swimlaneHead=0;swimlaneBody=0;fillColor=none;collapsible=0;dropTarget=0;points=[[0,0.5],[1,0.5]];portConstraint=eastwest;top=0;left=0;right=0;bottom=0;" vertex="1" parent="mauJUShE3Ou6oU76Z420-17">
          <mxGeometry y="90" width="180" height="30" as="geometry" />
        </mxCell>
        <mxCell id="mauJUShE3Ou6oU76Z420-25" value="i2" style="shape=partialRectangle;connectable=0;fillColor=none;top=0;left=0;bottom=0;right=0;editable=1;overflow=hidden;whiteSpace=wrap;html=1;" vertex="1" parent="mauJUShE3Ou6oU76Z420-24">
          <mxGeometry width="30" height="30" as="geometry">
            <mxRectangle width="30" height="30" as="alternateBounds" />
          </mxGeometry>
        </mxCell>
        <mxCell id="mauJUShE3Ou6oU76Z420-26" value="Dr. Emily Brown" style="shape=partialRectangle;connectable=0;fillColor=none;top=0;left=0;bottom=0;right=0;align=left;spacingLeft=6;overflow=hidden;whiteSpace=wrap;html=1;" vertex="1" parent="mauJUShE3Ou6oU76Z420-24">
          <mxGeometry x="30" width="150" height="30" as="geometry">
            <mxRectangle width="150" height="30" as="alternateBounds" />
          </mxGeometry>
        </mxCell>
        <mxCell id="mauJUShE3Ou6oU76Z420-27" value="" style="shape=tableRow;horizontal=0;startSize=0;swimlaneHead=0;swimlaneBody=0;fillColor=none;collapsible=0;dropTarget=0;points=[[0,0.5],[1,0.5]];portConstraint=eastwest;top=0;left=0;right=0;bottom=0;" vertex="1" parent="mauJUShE3Ou6oU76Z420-17">
          <mxGeometry y="120" width="180" height="30" as="geometry" />
        </mxCell>
        <mxCell id="mauJUShE3Ou6oU76Z420-28" value="i3" style="shape=partialRectangle;connectable=0;fillColor=none;top=0;left=0;bottom=0;right=0;editable=1;overflow=hidden;whiteSpace=wrap;html=1;" vertex="1" parent="mauJUShE3Ou6oU76Z420-27">
          <mxGeometry width="30" height="30" as="geometry">
            <mxRectangle width="30" height="30" as="alternateBounds" />
          </mxGeometry>
        </mxCell>
        <mxCell id="mauJUShE3Ou6oU76Z420-29" value="Dr. Jane W&lt;span style=&quot;background-color: initial;&quot;&gt;hite&lt;/span&gt;" style="shape=partialRectangle;connectable=0;fillColor=none;top=0;left=0;bottom=0;right=0;align=left;spacingLeft=6;overflow=hidden;whiteSpace=wrap;html=1;" vertex="1" parent="mauJUShE3Ou6oU76Z420-27">
          <mxGeometry x="30" width="150" height="30" as="geometry">
            <mxRectangle width="150" height="30" as="alternateBounds" />
          </mxGeometry>
        </mxCell>
        <mxCell id="mauJUShE3Ou6oU76Z420-30" value="S4" style="shape=partialRectangle;connectable=0;fillColor=none;top=0;left=0;bottom=0;right=0;editable=1;overflow=hidden;whiteSpace=wrap;html=1;" vertex="1" parent="1">
          <mxGeometry x="196" y="302" width="30" height="30" as="geometry">
            <mxRectangle width="30" height="30" as="alternateBounds" />
          </mxGeometry>
        </mxCell>
        <mxCell id="mauJUShE3Ou6oU76Z420-31" value="S5" style="shape=partialRectangle;connectable=0;fillColor=none;top=0;left=0;bottom=0;right=0;editable=1;overflow=hidden;whiteSpace=wrap;html=1;" vertex="1" parent="1">
          <mxGeometry x="196" y="322" width="30" height="30" as="geometry">
            <mxRectangle width="30" height="30" as="alternateBounds" />
          </mxGeometry>
        </mxCell>
        <mxCell id="mauJUShE3Ou6oU76Z420-32" value="S6" style="shape=partialRectangle;connectable=0;fillColor=none;top=0;left=0;bottom=0;right=0;editable=1;overflow=hidden;whiteSpace=wrap;html=1;" vertex="1" parent="1">
          <mxGeometry x="196" y="342" width="30" height="30" as="geometry">
            <mxRectangle width="30" height="30" as="alternateBounds" />
          </mxGeometry>
        </mxCell>
        <mxCell id="mauJUShE3Ou6oU76Z420-33" value="Student" style="shape=table;startSize=30;container=1;collapsible=1;childLayout=tableLayout;fixedRows=1;rowLines=0;fontStyle=1;align=center;resizeLast=1;html=1;" vertex="1" parent="1">
          <mxGeometry x="-24" y="155" width="180" height="150" as="geometry" />
        </mxCell>
        <mxCell id="mauJUShE3Ou6oU76Z420-34" value="" style="shape=tableRow;horizontal=0;startSize=0;swimlaneHead=0;swimlaneBody=0;fillColor=none;collapsible=0;dropTarget=0;points=[[0,0.5],[1,0.5]];portConstraint=eastwest;top=0;left=0;right=0;bottom=1;" vertex="1" parent="mauJUShE3Ou6oU76Z420-33">
          <mxGeometry y="30" width="180" height="30" as="geometry" />
        </mxCell>
        <mxCell id="mauJUShE3Ou6oU76Z420-35" value="PK" style="shape=partialRectangle;connectable=0;fillColor=none;top=0;left=0;bottom=0;right=0;fontStyle=1;overflow=hidden;whiteSpace=wrap;html=1;" vertex="1" parent="mauJUShE3Ou6oU76Z420-34">
          <mxGeometry width="30" height="30" as="geometry">
            <mxRectangle width="30" height="30" as="alternateBounds" />
          </mxGeometry>
        </mxCell>
        <mxCell id="mauJUShE3Ou6oU76Z420-36" value="Student_ID" style="shape=partialRectangle;connectable=0;fillColor=none;top=0;left=0;bottom=0;right=0;align=left;spacingLeft=6;fontStyle=5;overflow=hidden;whiteSpace=wrap;html=1;" vertex="1" parent="mauJUShE3Ou6oU76Z420-34">
          <mxGeometry x="30" width="150" height="30" as="geometry">
            <mxRectangle width="150" height="30" as="alternateBounds" />
          </mxGeometry>
        </mxCell>
        <mxCell id="mauJUShE3Ou6oU76Z420-37" value="" style="shape=tableRow;horizontal=0;startSize=0;swimlaneHead=0;swimlaneBody=0;fillColor=none;collapsible=0;dropTarget=0;points=[[0,0.5],[1,0.5]];portConstraint=eastwest;top=0;left=0;right=0;bottom=0;" vertex="1" parent="mauJUShE3Ou6oU76Z420-33">
          <mxGeometry y="60" width="180" height="30" as="geometry" />
        </mxCell>
        <mxCell id="mauJUShE3Ou6oU76Z420-38" value="SN1" style="shape=partialRectangle;connectable=0;fillColor=none;top=0;left=0;bottom=0;right=0;editable=1;overflow=hidden;whiteSpace=wrap;html=1;" vertex="1" parent="mauJUShE3Ou6oU76Z420-37">
          <mxGeometry width="30" height="30" as="geometry">
            <mxRectangle width="30" height="30" as="alternateBounds" />
          </mxGeometry>
        </mxCell>
        <mxCell id="mauJUShE3Ou6oU76Z420-39" value="Alice Smith" style="shape=partialRectangle;connectable=0;fillColor=none;top=0;left=0;bottom=0;right=0;align=left;spacingLeft=6;overflow=hidden;whiteSpace=wrap;html=1;" vertex="1" parent="mauJUShE3Ou6oU76Z420-37">
          <mxGeometry x="30" width="150" height="30" as="geometry">
            <mxRectangle width="150" height="30" as="alternateBounds" />
          </mxGeometry>
        </mxCell>
        <mxCell id="mauJUShE3Ou6oU76Z420-40" value="" style="shape=tableRow;horizontal=0;startSize=0;swimlaneHead=0;swimlaneBody=0;fillColor=none;collapsible=0;dropTarget=0;points=[[0,0.5],[1,0.5]];portConstraint=eastwest;top=0;left=0;right=0;bottom=0;" vertex="1" parent="mauJUShE3Ou6oU76Z420-33">
          <mxGeometry y="90" width="180" height="30" as="geometry" />
        </mxCell>
        <mxCell id="mauJUShE3Ou6oU76Z420-41" value="SN2" style="shape=partialRectangle;connectable=0;fillColor=none;top=0;left=0;bottom=0;right=0;editable=1;overflow=hidden;whiteSpace=wrap;html=1;" vertex="1" parent="mauJUShE3Ou6oU76Z420-40">
          <mxGeometry width="30" height="30" as="geometry">
            <mxRectangle width="30" height="30" as="alternateBounds" />
          </mxGeometry>
        </mxCell>
        <mxCell id="mauJUShE3Ou6oU76Z420-42" value="Bob Johnson" style="shape=partialRectangle;connectable=0;fillColor=none;top=0;left=0;bottom=0;right=0;align=left;spacingLeft=6;overflow=hidden;whiteSpace=wrap;html=1;" vertex="1" parent="mauJUShE3Ou6oU76Z420-40">
          <mxGeometry x="30" width="150" height="30" as="geometry">
            <mxRectangle width="150" height="30" as="alternateBounds" />
          </mxGeometry>
        </mxCell>
        <mxCell id="mauJUShE3Ou6oU76Z420-43" value="" style="shape=tableRow;horizontal=0;startSize=0;swimlaneHead=0;swimlaneBody=0;fillColor=none;collapsible=0;dropTarget=0;points=[[0,0.5],[1,0.5]];portConstraint=eastwest;top=0;left=0;right=0;bottom=0;" vertex="1" parent="mauJUShE3Ou6oU76Z420-33">
          <mxGeometry y="120" width="180" height="30" as="geometry" />
        </mxCell>
        <mxCell id="mauJUShE3Ou6oU76Z420-44" value="SN3" style="shape=partialRectangle;connectable=0;fillColor=none;top=0;left=0;bottom=0;right=0;editable=1;overflow=hidden;whiteSpace=wrap;html=1;" vertex="1" parent="mauJUShE3Ou6oU76Z420-43">
          <mxGeometry width="30" height="30" as="geometry">
            <mxRectangle width="30" height="30" as="alternateBounds" />
          </mxGeometry>
        </mxCell>
        <mxCell id="mauJUShE3Ou6oU76Z420-45" value="Carol Lee" style="shape=partialRectangle;connectable=0;fillColor=none;top=0;left=0;bottom=0;right=0;align=left;spacingLeft=6;overflow=hidden;whiteSpace=wrap;html=1;" vertex="1" parent="mauJUShE3Ou6oU76Z420-43">
          <mxGeometry x="30" width="150" height="30" as="geometry">
            <mxRectangle width="150" height="30" as="alternateBounds" />
          </mxGeometry>
        </mxCell>
        <mxCell id="mauJUShE3Ou6oU76Z420-46" value="Ins_Email" style="shape=table;startSize=30;container=1;collapsible=1;childLayout=tableLayout;fixedRows=1;rowLines=0;fontStyle=1;align=center;resizeLast=1;html=1;" vertex="1" parent="1">
          <mxGeometry x="620" y="160" width="180" height="150" as="geometry" />
        </mxCell>
        <mxCell id="mauJUShE3Ou6oU76Z420-47" value="" style="shape=tableRow;horizontal=0;startSize=0;swimlaneHead=0;swimlaneBody=0;fillColor=none;collapsible=0;dropTarget=0;points=[[0,0.5],[1,0.5]];portConstraint=eastwest;top=0;left=0;right=0;bottom=1;" vertex="1" parent="mauJUShE3Ou6oU76Z420-46">
          <mxGeometry y="30" width="180" height="30" as="geometry" />
        </mxCell>
        <mxCell id="mauJUShE3Ou6oU76Z420-48" value="FK" style="shape=partialRectangle;connectable=0;fillColor=none;top=0;left=0;bottom=0;right=0;fontStyle=1;overflow=hidden;whiteSpace=wrap;html=1;" vertex="1" parent="mauJUShE3Ou6oU76Z420-47">
          <mxGeometry width="30" height="30" as="geometry">
            <mxRectangle width="30" height="30" as="alternateBounds" />
          </mxGeometry>
        </mxCell>
        <mxCell id="mauJUShE3Ou6oU76Z420-49" value="INST_ID" style="shape=partialRectangle;connectable=0;fillColor=none;top=0;left=0;bottom=0;right=0;align=left;spacingLeft=6;fontStyle=5;overflow=hidden;whiteSpace=wrap;html=1;" vertex="1" parent="mauJUShE3Ou6oU76Z420-47">
          <mxGeometry x="30" width="150" height="30" as="geometry">
            <mxRectangle width="150" height="30" as="alternateBounds" />
          </mxGeometry>
        </mxCell>
        <mxCell id="mauJUShE3Ou6oU76Z420-50" value="" style="shape=tableRow;horizontal=0;startSize=0;swimlaneHead=0;swimlaneBody=0;fillColor=none;collapsible=0;dropTarget=0;points=[[0,0.5],[1,0.5]];portConstraint=eastwest;top=0;left=0;right=0;bottom=0;" vertex="1" parent="mauJUShE3Ou6oU76Z420-46">
          <mxGeometry y="60" width="180" height="30" as="geometry" />
        </mxCell>
        <mxCell id="mauJUShE3Ou6oU76Z420-51" value="i1" style="shape=partialRectangle;connectable=0;fillColor=none;top=0;left=0;bottom=0;right=0;editable=1;overflow=hidden;whiteSpace=wrap;html=1;" vertex="1" parent="mauJUShE3Ou6oU76Z420-50">
          <mxGeometry width="30" height="30" as="geometry">
            <mxRectangle width="30" height="30" as="alternateBounds" />
          </mxGeometry>
        </mxCell>
        <mxCell id="mauJUShE3Ou6oU76Z420-52" value="john.doe@university.edu" style="shape=partialRectangle;connectable=0;fillColor=none;top=0;left=0;bottom=0;right=0;align=left;spacingLeft=6;overflow=hidden;whiteSpace=wrap;html=1;" vertex="1" parent="mauJUShE3Ou6oU76Z420-50">
          <mxGeometry x="30" width="150" height="30" as="geometry">
            <mxRectangle width="150" height="30" as="alternateBounds" />
          </mxGeometry>
        </mxCell>
        <mxCell id="mauJUShE3Ou6oU76Z420-53" value="" style="shape=tableRow;horizontal=0;startSize=0;swimlaneHead=0;swimlaneBody=0;fillColor=none;collapsible=0;dropTarget=0;points=[[0,0.5],[1,0.5]];portConstraint=eastwest;top=0;left=0;right=0;bottom=0;" vertex="1" parent="mauJUShE3Ou6oU76Z420-46">
          <mxGeometry y="90" width="180" height="30" as="geometry" />
        </mxCell>
        <mxCell id="mauJUShE3Ou6oU76Z420-54" value="i2" style="shape=partialRectangle;connectable=0;fillColor=none;top=0;left=0;bottom=0;right=0;editable=1;overflow=hidden;whiteSpace=wrap;html=1;" vertex="1" parent="mauJUShE3Ou6oU76Z420-53">
          <mxGeometry width="30" height="30" as="geometry">
            <mxRectangle width="30" height="30" as="alternateBounds" />
          </mxGeometry>
        </mxCell>
        <mxCell id="mauJUShE3Ou6oU76Z420-55" value="emily.brown@university.edu" style="shape=partialRectangle;connectable=0;fillColor=none;top=0;left=0;bottom=0;right=0;align=left;spacingLeft=6;overflow=hidden;whiteSpace=wrap;html=1;" vertex="1" parent="mauJUShE3Ou6oU76Z420-53">
          <mxGeometry x="30" width="150" height="30" as="geometry">
            <mxRectangle width="150" height="30" as="alternateBounds" />
          </mxGeometry>
        </mxCell>
        <mxCell id="mauJUShE3Ou6oU76Z420-56" value="" style="shape=tableRow;horizontal=0;startSize=0;swimlaneHead=0;swimlaneBody=0;fillColor=none;collapsible=0;dropTarget=0;points=[[0,0.5],[1,0.5]];portConstraint=eastwest;top=0;left=0;right=0;bottom=0;" vertex="1" parent="mauJUShE3Ou6oU76Z420-46">
          <mxGeometry y="120" width="180" height="30" as="geometry" />
        </mxCell>
        <mxCell id="mauJUShE3Ou6oU76Z420-57" value="i3" style="shape=partialRectangle;connectable=0;fillColor=none;top=0;left=0;bottom=0;right=0;editable=1;overflow=hidden;whiteSpace=wrap;html=1;" vertex="1" parent="mauJUShE3Ou6oU76Z420-56">
          <mxGeometry width="30" height="30" as="geometry">
            <mxRectangle width="30" height="30" as="alternateBounds" />
          </mxGeometry>
        </mxCell>
        <mxCell id="mauJUShE3Ou6oU76Z420-58" value="jane.white@university.edu" style="shape=partialRectangle;connectable=0;fillColor=none;top=0;left=0;bottom=0;right=0;align=left;spacingLeft=6;overflow=hidden;whiteSpace=wrap;html=1;" vertex="1" parent="mauJUShE3Ou6oU76Z420-56">
          <mxGeometry x="30" width="150" height="30" as="geometry">
            <mxRectangle width="150" height="30" as="alternateBounds" />
          </mxGeometry>
        </mxCell>
        <mxCell id="mauJUShE3Ou6oU76Z420-61" value="" style="edgeStyle=entityRelationEdgeStyle;fontSize=12;html=1;endArrow=ERmandOne;rounded=0;entryX=0;entryY=0.5;entryDx=0;entryDy=0;exitX=1;exitY=0.5;exitDx=0;exitDy=0;" edge="1" parent="1" source="mauJUShE3Ou6oU76Z420-18" target="mauJUShE3Ou6oU76Z420-47">
          <mxGeometry width="100" height="100" relative="1" as="geometry">
            <mxPoint x="380" y="260" as="sourcePoint" />
            <mxPoint x="571.1599999999999" y="281.52999999999986" as="targetPoint" />
            <Array as="points">
              <mxPoint x="410" y="230" />
              <mxPoint x="410" y="240" />
              <mxPoint x="420" y="240" />
            </Array>
          </mxGeometry>
        </mxCell>
        <mxCell id="mauJUShE3Ou6oU76Z420-63" value="" style="edgeStyle=entityRelationEdgeStyle;fontSize=12;html=1;endArrow=ERoneToMany;rounded=0;exitX=0;exitY=0.5;exitDx=0;exitDy=0;entryX=1.013;entryY=0.721;entryDx=0;entryDy=0;entryPerimeter=0;" edge="1" parent="1" source="mauJUShE3Ou6oU76Z420-18" target="mauJUShE3Ou6oU76Z420-2">
          <mxGeometry width="100" height="100" relative="1" as="geometry">
            <mxPoint x="430" y="440" as="sourcePoint" />
            <mxPoint x="530" y="340" as="targetPoint" />
          </mxGeometry>
        </mxCell>
        <mxCell id="mauJUShE3Ou6oU76Z420-65" value="" style="edgeStyle=entityRelationEdgeStyle;fontSize=12;html=1;endArrow=ERmany;startArrow=ERmany;rounded=0;exitX=1;exitY=0.5;exitDx=0;exitDy=0;" edge="1" parent="1" source="mauJUShE3Ou6oU76Z420-34">
          <mxGeometry width="100" height="100" relative="1" as="geometry">
            <mxPoint x="96" y="300" as="sourcePoint" />
            <mxPoint x="196" y="200" as="targetPoint" />
          </mxGeometry>
        </mxCell>
        <UserObject label="&lt;table xmlns=&quot;http://www.w3.org/1999/xhtml&quot; cellspacing=&quot;0&quot; cellpadding=&quot;0&quot; dir=&quot;ltr&quot; border=&quot;1&quot; style=&quot;table-layout:fixed;font-size:10pt;font-family:Arial;width:0px;border-collapse:collapse;border:none&quot; data-sheets-root=&quot;1&quot; data-sheets-baot=&quot;1&quot;&gt;&lt;colgroup&gt;&lt;col width=&quot;100&quot;&gt;&lt;col width=&quot;137&quot;&gt;&lt;col width=&quot;100&quot;&gt;&lt;col width=&quot;172&quot;&gt;&lt;col width=&quot;106&quot;&gt;&lt;col width=&quot;201&quot;&gt;&lt;col width=&quot;172&quot;&gt;&lt;/colgroup&gt;&lt;tbody&gt;&lt;tr style=&quot;height:20px;&quot;&gt;&lt;td style=&quot;overflow:hidden;padding:0px 3px 0px 3px;vertical-align:bottom;background-color:#f9cb9c;font-weight:bold;text-align:center;&quot;&gt;StudentName&lt;/td&gt;&lt;td style=&quot;overflow:hidden;padding:0px 3px 0px 3px;vertical-align:bottom;background-color:#f9cb9c;font-weight:bold;text-align:center;&quot;&gt;Skills&lt;/td&gt;&lt;td style=&quot;overflow:hidden;padding:0px 3px 0px 3px;vertical-align:bottom;background-color:#f9cb9c;font-weight:bold;text-align:center;&quot;&gt;InstructorName&lt;/td&gt;&lt;td style=&quot;overflow:hidden;padding:0px 3px 0px 3px;vertical-align:bottom;background-color:#f9cb9c;font-weight:bold;text-align:center;&quot;&gt;InstructorEmail&lt;/td&gt;&lt;td style=&quot;overflow:hidden;padding:0px 3px 0px 3px;vertical-align:bottom;&quot;&gt;&lt;/td&gt;&lt;td style=&quot;overflow:hidden;padding:0px 3px 0px 3px;vertical-align:bottom;&quot;&gt;&lt;/td&gt;&lt;td style=&quot;overflow:hidden;padding:0px 3px 0px 3px;vertical-align:bottom;&quot;&gt;&lt;/td&gt;&lt;/tr&gt;&lt;tr style=&quot;height:20px;&quot;&gt;&lt;td style=&quot;overflow:hidden;padding:0px 3px 0px 3px;vertical-align:bottom;&quot;&gt;Alice Smith&lt;/td&gt;&lt;td style=&quot;overflow:hidden;padding:0px 3px 0px 3px;vertical-align:bottom;&quot;&gt;PYHTON&lt;/td&gt;&lt;td style=&quot;overflow:hidden;padding:0px 3px 0px 3px;vertical-align:bottom;&quot;&gt;Dr. John Doe&lt;/td&gt;&lt;td style=&quot;overflow:hidden;padding:0px 3px 0px 3px;vertical-align:bottom;&quot;&gt;john.doe@university.edu&lt;/td&gt;&lt;td style=&quot;overflow:hidden;padding:0px 3px 0px 3px;vertical-align:bottom;&quot;&gt;&lt;/td&gt;&lt;td style=&quot;overflow:hidden;padding:0px 3px 0px 3px;vertical-align:bottom;&quot;&gt;&lt;/td&gt;&lt;td style=&quot;overflow:hidden;padding:0px 3px 0px 3px;vertical-align:bottom;&quot;&gt;&lt;/td&gt;&lt;/tr&gt;&lt;tr style=&quot;height:20px;&quot;&gt;&lt;td style=&quot;overflow:hidden;padding:0px 3px 0px 3px;vertical-align:bottom;&quot;&gt;Alice Smith&lt;/td&gt;&lt;td style=&quot;overflow:hidden;padding:0px 3px 0px 3px;vertical-align:bottom;&quot;&gt;SQL&lt;/td&gt;&lt;td style=&quot;overflow:hidden;padding:0px 3px 0px 3px;vertical-align:bottom;&quot;&gt;Dr. John Doe&lt;/td&gt;&lt;td style=&quot;overflow:hidden;padding:0px 3px 0px 3px;vertical-align:bottom;&quot;&gt;john.doe@university.edu&lt;/td&gt;&lt;td style=&quot;overflow:hidden;padding:0px 3px 0px 3px;vertical-align:bottom;&quot;&gt;&lt;/td&gt;&lt;td style=&quot;overflow:hidden;padding:0px 3px 0px 3px;vertical-align:bottom;&quot;&gt;&lt;/td&gt;&lt;td style=&quot;overflow:hidden;padding:0px 3px 0px 3px;vertical-align:bottom;&quot;&gt;&lt;/td&gt;&lt;/tr&gt;&lt;tr style=&quot;height:20px;&quot;&gt;&lt;td style=&quot;overflow:hidden;padding:0px 3px 0px 3px;vertical-align:bottom;&quot;&gt;Alice Smith&lt;/td&gt;&lt;td style=&quot;overflow:hidden;padding:0px 3px 0px 3px;vertical-align:bottom;&quot;&gt;SQL&lt;/td&gt;&lt;td style=&quot;overflow:hidden;padding:0px 3px 0px 3px;vertical-align:bottom;&quot;&gt;Dr. Jane White&lt;/td&gt;&lt;td style=&quot;overflow:hidden;padding:0px 3px 0px 3px;vertical-align:bottom;&quot;&gt;jane.white@university.edu&lt;/td&gt;&lt;td style=&quot;overflow:hidden;padding:0px 3px 0px 3px;vertical-align:bottom;&quot;&gt;&lt;/td&gt;&lt;td style=&quot;overflow:hidden;padding:0px 3px 0px 3px;vertical-align:bottom;&quot;&gt;&lt;/td&gt;&lt;td style=&quot;overflow:hidden;padding:0px 3px 0px 3px;vertical-align:bottom;&quot;&gt;&lt;/td&gt;&lt;/tr&gt;&lt;tr style=&quot;height:20px;&quot;&gt;&lt;td style=&quot;overflow:hidden;padding:0px 3px 0px 3px;vertical-align:bottom;&quot;&gt;Alice Smith&lt;/td&gt;&lt;td style=&quot;overflow:hidden;padding:0px 3px 0px 3px;vertical-align:bottom;&quot;&gt;C#&lt;/td&gt;&lt;td style=&quot;overflow:hidden;padding:0px 3px 0px 3px;vertical-align:bottom;&quot;&gt;Dr. Jane White&lt;/td&gt;&lt;td style=&quot;overflow:hidden;padding:0px 3px 0px 3px;vertical-align:bottom;&quot;&gt;jane.white@university.edu&lt;/td&gt;&lt;td style=&quot;overflow:hidden;padding:0px 3px 0px 3px;vertical-align:middle;text-align:center;&quot; rowspan=&quot;2&quot; colspan=&quot;1&quot;&gt;&lt;span&gt;&lt;div style=&quot;max-height:40px&quot;&gt;1NF&lt;/div&gt;&lt;/span&gt;&lt;/td&gt;&lt;td style=&quot;overflow:hidden;padding:0px 3px 0px 3px;vertical-align:bottom;&quot;&gt;&lt;/td&gt;&lt;td style=&quot;overflow:hidden;padding:0px 3px 0px 3px;vertical-align:bottom;&quot;&gt;&lt;/td&gt;&lt;/tr&gt;&lt;tr style=&quot;height:20px;&quot;&gt;&lt;td style=&quot;overflow:hidden;padding:0px 3px 0px 3px;vertical-align:bottom;&quot;&gt;Bob Johnson&lt;/td&gt;&lt;td style=&quot;overflow:hidden;padding:0px 3px 0px 3px;vertical-align:bottom;&quot;&gt;JAVA&lt;/td&gt;&lt;td style=&quot;overflow:hidden;padding:0px 3px 0px 3px;vertical-align:bottom;&quot;&gt;Dr. John Doe&lt;/td&gt;&lt;td style=&quot;overflow:hidden;padding:0px 3px 0px 3px;vertical-align:bottom;&quot;&gt;john.doe@university.edu&lt;/td&gt;&lt;td style=&quot;overflow:hidden;padding:0px 3px 0px 3px;vertical-align:bottom;&quot;&gt;&lt;/td&gt;&lt;td style=&quot;overflow:hidden;padding:0px 3px 0px 3px;vertical-align:bottom;&quot;&gt;&lt;/td&gt;&lt;/tr&gt;&lt;tr style=&quot;height:20px;&quot;&gt;&lt;td style=&quot;overflow:hidden;padding:0px 3px 0px 3px;vertical-align:bottom;&quot;&gt;Bob Johnson&lt;/td&gt;&lt;td style=&quot;overflow:hidden;padding:0px 3px 0px 3px;vertical-align:bottom;&quot;&gt;JAVA SCRIPT&lt;/td&gt;&lt;td style=&quot;overflow:hidden;padding:0px 3px 0px 3px;vertical-align:bottom;&quot;&gt;Dr. John Doe&lt;/td&gt;&lt;td style=&quot;overflow:hidden;padding:0px 3px 0px 3px;vertical-align:bottom;&quot;&gt;john.doe@university.edu&lt;/td&gt;&lt;td style=&quot;overflow:hidden;padding:0px 3px 0px 3px;vertical-align:bottom;&quot;&gt;&lt;/td&gt;&lt;td style=&quot;overflow:hidden;padding:0px 3px 0px 3px;vertical-align:bottom;&quot;&gt;&lt;/td&gt;&lt;td style=&quot;overflow:hidden;padding:0px 3px 0px 3px;vertical-align:bottom;&quot;&gt;&lt;/td&gt;&lt;/tr&gt;&lt;tr style=&quot;height:20px;&quot;&gt;&lt;td style=&quot;overflow:hidden;padding:0px 3px 0px 3px;vertical-align:bottom;&quot;&gt;Bob Johnson&lt;/td&gt;&lt;td style=&quot;overflow:hidden;padding:0px 3px 0px 3px;vertical-align:bottom;&quot;&gt;C++&lt;/td&gt;&lt;td style=&quot;overflow:hidden;padding:0px 3px 0px 3px;vertical-align:bottom;&quot;&gt;Dr. John Doe&lt;/td&gt;&lt;td style=&quot;overflow:hidden;padding:0px 3px 0px 3px;vertical-align:bottom;&quot;&gt;john.doe@university.edu&lt;/td&gt;&lt;td style=&quot;overflow:hidden;padding:0px 3px 0px 3px;vertical-align:bottom;&quot;&gt;&lt;/td&gt;&lt;td style=&quot;overflow:hidden;padding:0px 3px 0px 3px;vertical-align:bottom;&quot;&gt;&lt;/td&gt;&lt;td style=&quot;overflow:hidden;padding:0px 3px 0px 3px;vertical-align:bottom;&quot;&gt;&lt;/td&gt;&lt;/tr&gt;&lt;tr style=&quot;height:20px;&quot;&gt;&lt;td style=&quot;overflow:hidden;padding:0px 3px 0px 3px;vertical-align:bottom;&quot;&gt;Carol Lee&lt;/td&gt;&lt;td style=&quot;overflow:hidden;padding:0px 3px 0px 3px;vertical-align:bottom;&quot;&gt;PYHTON&lt;/td&gt;&lt;td style=&quot;overflow:hidden;padding:0px 3px 0px 3px;vertical-align:bottom;&quot;&gt;Dr. Emily Brown&lt;/td&gt;&lt;td style=&quot;overflow:hidden;padding:0px 3px 0px 3px;vertical-align:bottom;&quot;&gt;emily.brown@university.edu&lt;/td&gt;&lt;td style=&quot;overflow:hidden;padding:0px 3px 0px 3px;vertical-align:bottom;&quot;&gt;&lt;/td&gt;&lt;td style=&quot;overflow:hidden;padding:0px 3px 0px 3px;vertical-align:bottom;&quot;&gt;&lt;/td&gt;&lt;td style=&quot;overflow:hidden;padding:0px 3px 0px 3px;vertical-align:bottom;&quot;&gt;&lt;/td&gt;&lt;/tr&gt;&lt;tr style=&quot;height:20px;&quot;&gt;&lt;td style=&quot;overflow:hidden;padding:0px 3px 0px 3px;vertical-align:bottom;&quot;&gt;Carol Lee&lt;/td&gt;&lt;td style=&quot;overflow:hidden;padding:0px 3px 0px 3px;vertical-align:bottom;&quot;&gt;R&lt;/td&gt;&lt;td style=&quot;overflow:hidden;padding:0px 3px 0px 3px;vertical-align:bottom;&quot;&gt;Dr. Emily Brown&lt;/td&gt;&lt;td style=&quot;overflow:hidden;padding:0px 3px 0px 3px;vertical-align:bottom;&quot;&gt;emily.brown@university.edu&lt;/td&gt;&lt;td style=&quot;overflow:hidden;padding:0px 3px 0px 3px;vertical-align:bottom;&quot;&gt;&lt;/td&gt;&lt;td style=&quot;overflow:hidden;padding:0px 3px 0px 3px;vertical-align:bottom;&quot;&gt;&lt;/td&gt;&lt;td style=&quot;overflow:hidden;padding:0px 3px 0px 3px;vertical-align:bottom;&quot;&gt;&lt;/td&gt;&lt;/tr&gt;&lt;tr style=&quot;height:20px;&quot;&gt;&lt;td style=&quot;overflow:hidden;padding:0px 3px 0px 3px;vertical-align:bottom;&quot;&gt;&lt;/td&gt;&lt;td style=&quot;overflow:hidden;padding:0px 3px 0px 3px;vertical-align:bottom;&quot;&gt;&lt;/td&gt;&lt;td style=&quot;overflow:hidden;padding:0px 3px 0px 3px;vertical-align:bottom;&quot;&gt;&lt;/td&gt;&lt;td style=&quot;overflow:hidden;padding:0px 3px 0px 3px;vertical-align:bottom;&quot;&gt;&lt;/td&gt;&lt;td style=&quot;overflow:hidden;padding:0px 3px 0px 3px;vertical-align:bottom;&quot;&gt;&lt;/td&gt;&lt;td style=&quot;overflow:hidden;padding:0px 3px 0px 3px;vertical-align:bottom;&quot;&gt;&lt;/td&gt;&lt;td style=&quot;overflow:hidden;padding:0px 3px 0px 3px;vertical-align:bottom;&quot;&gt;&lt;/td&gt;&lt;/tr&gt;&lt;tr style=&quot;height:20px;&quot;&gt;&lt;td style=&quot;overflow:hidden;padding:0px 3px 0px 3px;vertical-align:bottom;&quot;&gt;&lt;/td&gt;&lt;td style=&quot;overflow:hidden;padding:0px 3px 0px 3px;vertical-align:bottom;&quot;&gt;&lt;/td&gt;&lt;td style=&quot;overflow:hidden;padding:0px 3px 0px 3px;vertical-align:bottom;&quot;&gt;&lt;/td&gt;&lt;td style=&quot;overflow:hidden;padding:0px 3px 0px 3px;vertical-align:bottom;&quot;&gt;&lt;/td&gt;&lt;td style=&quot;overflow:hidden;padding:0px 3px 0px 3px;vertical-align:bottom;&quot;&gt;&lt;/td&gt;&lt;td style=&quot;overflow:hidden;padding:0px 3px 0px 3px;vertical-align:bottom;&quot;&gt;&lt;/td&gt;&lt;td style=&quot;overflow:hidden;padding:0px 3px 0px 3px;vertical-align:bottom;&quot;&gt;&lt;/td&gt;&lt;/tr&gt;&lt;tr style=&quot;height:20px;&quot;&gt;&lt;td style=&quot;overflow:hidden;padding:0px 3px 0px 3px;vertical-align:bottom;&quot;&gt;&lt;/td&gt;&lt;td style=&quot;overflow:hidden;padding:0px 3px 0px 3px;vertical-align:bottom;&quot;&gt;&lt;/td&gt;&lt;td style=&quot;overflow:hidden;padding:0px 3px 0px 3px;vertical-align:bottom;&quot;&gt;&lt;/td&gt;&lt;td style=&quot;overflow:hidden;padding:0px 3px 0px 3px;vertical-align:bottom;&quot;&gt;&lt;/td&gt;&lt;td style=&quot;overflow:hidden;padding:0px 3px 0px 3px;vertical-align:bottom;&quot;&gt;&lt;/td&gt;&lt;td style=&quot;overflow:hidden;padding:0px 3px 0px 3px;vertical-align:bottom;&quot;&gt;&lt;/td&gt;&lt;td style=&quot;overflow:hidden;padding:0px 3px 0px 3px;vertical-align:bottom;&quot;&gt;&lt;/td&gt;&lt;/tr&gt;&lt;tr style=&quot;height:20px;&quot;&gt;&lt;td style=&quot;overflow:hidden;padding:0px 3px 0px 3px;vertical-align:bottom;&quot;&gt;&lt;/td&gt;&lt;td style=&quot;overflow:hidden;padding:0px 3px 0px 3px;vertical-align:bottom;&quot;&gt;&lt;/td&gt;&lt;td style=&quot;overflow:hidden;padding:0px 3px 0px 3px;vertical-align:bottom;&quot;&gt;&lt;/td&gt;&lt;td style=&quot;overflow:hidden;padding:0px 3px 0px 3px;vertical-align:bottom;&quot;&gt;&lt;/td&gt;&lt;td style=&quot;overflow:hidden;padding:0px 3px 0px 3px;vertical-align:bottom;&quot;&gt;&lt;/td&gt;&lt;td style=&quot;overflow:hidden;padding:0px 3px 0px 3px;vertical-align:bottom;&quot;&gt;&lt;/td&gt;&lt;td style=&quot;overflow:hidden;padding:0px 3px 0px 3px;vertical-align:bottom;&quot;&gt;&lt;/td&gt;&lt;/tr&gt;&lt;tr style=&quot;height:20px;&quot;&gt;&lt;td style=&quot;overflow:hidden;padding:0px 3px 0px 3px;vertical-align:bottom;background-color:#f9cb9c;font-weight:bold;text-align:center;&quot;&gt;StudentName&lt;/td&gt;&lt;td style=&quot;overflow:hidden;padding:0px 3px 0px 3px;vertical-align:bottom;background-color:#f9cb9c;font-weight:bold;text-align:center;&quot;&gt;Skills&lt;/td&gt;&lt;td style=&quot;overflow:hidden;padding:0px 3px 0px 3px;vertical-align:bottom;background-color:#f9cb9c;font-weight:bold;text-align:center;&quot;&gt;INST_ID&lt;/td&gt;&lt;td style=&quot;overflow:hidden;padding:0px 3px 0px 3px;vertical-align:bottom;&quot;&gt;&lt;/td&gt;&lt;td style=&quot;overflow:hidden;padding:0px 3px 0px 3px;vertical-align:bottom;background-color:#f9cb9c;font-weight:bold;text-align:center;&quot;&gt;INST_ID&lt;/td&gt;&lt;td style=&quot;overflow:hidden;padding:0px 3px 0px 3px;vertical-align:bottom;background-color:#f9cb9c;font-weight:bold;text-align:center;&quot;&gt;InstructorName&lt;/td&gt;&lt;td style=&quot;overflow:hidden;padding:0px 3px 0px 3px;vertical-align:bottom;background-color:#f9cb9c;font-weight:bold;text-align:center;&quot;&gt;InstructorEmail&lt;/td&gt;&lt;/tr&gt;&lt;tr style=&quot;height:20px;&quot;&gt;&lt;td style=&quot;overflow:hidden;padding:0px 3px 0px 3px;vertical-align:bottom;&quot;&gt;Alice Smith&lt;/td&gt;&lt;td style=&quot;overflow:hidden;padding:0px 3px 0px 3px;vertical-align:bottom;&quot;&gt;PYHTON&lt;/td&gt;&lt;td style=&quot;overflow:hidden;padding:0px 3px 0px 3px;vertical-align:bottom;text-align:center;&quot;&gt;i1&lt;/td&gt;&lt;td style=&quot;overflow:hidden;padding:0px 3px 0px 3px;vertical-align:bottom;&quot;&gt;&lt;/td&gt;&lt;td style=&quot;overflow:hidden;padding:0px 3px 0px 3px;vertical-align:bottom;text-align:center;&quot;&gt;i1&lt;/td&gt;&lt;td style=&quot;overflow:hidden;padding:0px 3px 0px 3px;vertical-align:bottom;&quot;&gt;Dr. John Doe&lt;/td&gt;&lt;td style=&quot;overflow:hidden;padding:0px 3px 0px 3px;vertical-align:bottom;&quot;&gt;john.doe@university.edu&lt;/td&gt;&lt;/tr&gt;&lt;tr style=&quot;height:20px;&quot;&gt;&lt;td style=&quot;overflow:hidden;padding:0px 3px 0px 3px;vertical-align:bottom;&quot;&gt;Alice Smith&lt;/td&gt;&lt;td style=&quot;overflow:hidden;padding:0px 3px 0px 3px;vertical-align:bottom;&quot;&gt;SQL&lt;/td&gt;&lt;td style=&quot;overflow:hidden;padding:0px 3px 0px 3px;vertical-align:bottom;text-align:center;&quot;&gt;i1&lt;/td&gt;&lt;td style=&quot;overflow:hidden;padding:0px 3px 0px 3px;vertical-align:bottom;&quot;&gt;&lt;/td&gt;&lt;td style=&quot;overflow:hidden;padding:0px 3px 0px 3px;vertical-align:bottom;text-align:center;&quot;&gt;i2&lt;/td&gt;&lt;td style=&quot;overflow:hidden;padding:0px 3px 0px 3px;vertical-align:bottom;&quot;&gt;Dr. Jane White&lt;/td&gt;&lt;td style=&quot;overflow:hidden;padding:0px 3px 0px 3px;vertical-align:bottom;&quot;&gt;jane.white@university.edu&lt;/td&gt;&lt;/tr&gt;&lt;tr style=&quot;height:20px;&quot;&gt;&lt;td style=&quot;overflow:hidden;padding:0px 3px 0px 3px;vertical-align:bottom;&quot;&gt;Alice Smith&lt;/td&gt;&lt;td style=&quot;overflow:hidden;padding:0px 3px 0px 3px;vertical-align:bottom;&quot;&gt;SQL&lt;/td&gt;&lt;td style=&quot;overflow:hidden;padding:0px 3px 0px 3px;vertical-align:bottom;text-align:center;&quot;&gt;i2&lt;/td&gt;&lt;td style=&quot;overflow:hidden;padding:0px 3px 0px 3px;vertical-align:bottom;&quot;&gt;&lt;/td&gt;&lt;td style=&quot;overflow:hidden;padding:0px 3px 0px 3px;vertical-align:bottom;text-align:center;&quot;&gt;i3&lt;/td&gt;&lt;td style=&quot;overflow:hidden;padding:0px 3px 0px 3px;vertical-align:bottom;&quot;&gt;Dr. Emily Brown&lt;/td&gt;&lt;td style=&quot;overflow:hidden;padding:0px 3px 0px 3px;vertical-align:bottom;&quot;&gt;emily.brown@university.edu&lt;/td&gt;&lt;/tr&gt;&lt;tr style=&quot;height:20px;&quot;&gt;&lt;td style=&quot;overflow:hidden;padding:0px 3px 0px 3px;vertical-align:bottom;&quot;&gt;Alice Smith&lt;/td&gt;&lt;td style=&quot;overflow:hidden;padding:0px 3px 0px 3px;vertical-align:bottom;&quot;&gt;C#&lt;/td&gt;&lt;td style=&quot;overflow:hidden;padding:0px 3px 0px 3px;vertical-align:bottom;text-align:center;&quot;&gt;i2&lt;/td&gt;&lt;td style=&quot;overflow:hidden;padding:0px 3px 0px 3px;vertical-align:middle;text-align:center;&quot; rowspan=&quot;2&quot; colspan=&quot;1&quot;&gt;&lt;span&gt;&lt;div style=&quot;max-height:40px&quot;&gt;2NF&lt;/div&gt;&lt;/span&gt;&lt;/td&gt;&lt;td style=&quot;overflow:hidden;padding:0px 3px 0px 3px;vertical-align:bottom;&quot;&gt;&lt;/td&gt;&lt;td style=&quot;overflow:hidden;padding:0px 3px 0px 3px;vertical-align:bottom;&quot;&gt;&lt;/td&gt;&lt;td style=&quot;overflow:hidden;padding:0px 3px 0px 3px;vertical-align:bottom;&quot;&gt;&lt;/td&gt;&lt;/tr&gt;&lt;tr style=&quot;height:20px;&quot;&gt;&lt;td style=&quot;overflow:hidden;padding:0px 3px 0px 3px;vertical-align:bottom;&quot;&gt;Bob Johnson&lt;/td&gt;&lt;td style=&quot;overflow:hidden;padding:0px 3px 0px 3px;vertical-align:bottom;&quot;&gt;JAVA&lt;/td&gt;&lt;td style=&quot;overflow:hidden;padding:0px 3px 0px 3px;vertical-align:bottom;text-align:center;&quot;&gt;i1&lt;/td&gt;&lt;td style=&quot;overflow:hidden;padding:0px 3px 0px 3px;vertical-align:bottom;&quot;&gt;&lt;/td&gt;&lt;td style=&quot;overflow:hidden;padding:0px 3px 0px 3px;vertical-align:bottom;&quot;&gt;&lt;/td&gt;&lt;td style=&quot;overflow:hidden;padding:0px 3px 0px 3px;vertical-align:bottom;&quot;&gt;&lt;/td&gt;&lt;/tr&gt;&lt;tr style=&quot;height:20px;&quot;&gt;&lt;td style=&quot;overflow:hidden;padding:0px 3px 0px 3px;vertical-align:bottom;&quot;&gt;Bob Johnson&lt;/td&gt;&lt;td style=&quot;overflow:hidden;padding:0px 3px 0px 3px;vertical-align:bottom;&quot;&gt;JAVA SCRIPT&lt;/td&gt;&lt;td style=&quot;overflow:hidden;padding:0px 3px 0px 3px;vertical-align:bottom;text-align:center;&quot;&gt;i1&lt;/td&gt;&lt;td style=&quot;overflow:hidden;padding:0px 3px 0px 3px;vertical-align:bottom;&quot;&gt;&lt;/td&gt;&lt;td style=&quot;overflow:hidden;padding:0px 3px 0px 3px;vertical-align:bottom;&quot;&gt;&lt;/td&gt;&lt;td style=&quot;overflow:hidden;padding:0px 3px 0px 3px;vertical-align:bottom;&quot;&gt;&lt;/td&gt;&lt;td style=&quot;overflow:hidden;padding:0px 3px 0px 3px;vertical-align:bottom;&quot;&gt;&lt;/td&gt;&lt;/tr&gt;&lt;tr style=&quot;height:20px;&quot;&gt;&lt;td style=&quot;overflow:hidden;padding:0px 3px 0px 3px;vertical-align:bottom;&quot;&gt;Bob Johnson&lt;/td&gt;&lt;td style=&quot;overflow:hidden;padding:0px 3px 0px 3px;vertical-align:bottom;&quot;&gt;C++&lt;/td&gt;&lt;td style=&quot;overflow:hidden;padding:0px 3px 0px 3px;vertical-align:bottom;text-align:center;&quot;&gt;i1&lt;/td&gt;&lt;td style=&quot;overflow:hidden;padding:0px 3px 0px 3px;vertical-align:bottom;&quot;&gt;&lt;/td&gt;&lt;td style=&quot;overflow:hidden;padding:0px 3px 0px 3px;vertical-align:bottom;&quot;&gt;&lt;/td&gt;&lt;td style=&quot;overflow:hidden;padding:0px 3px 0px 3px;vertical-align:bottom;&quot;&gt;&lt;/td&gt;&lt;td style=&quot;overflow:hidden;padding:0px 3px 0px 3px;vertical-align:bottom;&quot;&gt;&lt;/td&gt;&lt;/tr&gt;&lt;tr style=&quot;height:20px;&quot;&gt;&lt;td style=&quot;overflow:hidden;padding:0px 3px 0px 3px;vertical-align:bottom;&quot;&gt;Carol Lee&lt;/td&gt;&lt;td style=&quot;overflow:hidden;padding:0px 3px 0px 3px;vertical-align:bottom;&quot;&gt;PYHTON&lt;/td&gt;&lt;td style=&quot;overflow:hidden;padding:0px 3px 0px 3px;vertical-align:bottom;text-align:center;&quot;&gt;i3&lt;/td&gt;&lt;td style=&quot;overflow:hidden;padding:0px 3px 0px 3px;vertical-align:bottom;&quot;&gt;&lt;/td&gt;&lt;td style=&quot;overflow:hidden;padding:0px 3px 0px 3px;vertical-align:bottom;&quot;&gt;&lt;/td&gt;&lt;td style=&quot;overflow:hidden;padding:0px 3px 0px 3px;vertical-align:bottom;&quot;&gt;&lt;/td&gt;&lt;td style=&quot;overflow:hidden;padding:0px 3px 0px 3px;vertical-align:bottom;&quot;&gt;&lt;/td&gt;&lt;/tr&gt;&lt;tr style=&quot;height:20px;&quot;&gt;&lt;td style=&quot;overflow:hidden;padding:0px 3px 0px 3px;vertical-align:bottom;&quot;&gt;Carol Lee&lt;/td&gt;&lt;td style=&quot;overflow:hidden;padding:0px 3px 0px 3px;vertical-align:bottom;&quot;&gt;R&lt;/td&gt;&lt;td style=&quot;overflow:hidden;padding:0px 3px 0px 3px;vertical-align:bottom;text-align:center;&quot;&gt;i3&lt;/td&gt;&lt;td style=&quot;overflow:hidden;padding:0px 3px 0px 3px;vertical-align:bottom;&quot;&gt;&lt;/td&gt;&lt;td style=&quot;overflow:hidden;padding:0px 3px 0px 3px;vertical-align:bottom;&quot;&gt;&lt;/td&gt;&lt;td style=&quot;overflow:hidden;padding:0px 3px 0px 3px;vertical-align:bottom;&quot;&gt;&lt;/td&gt;&lt;td style=&quot;overflow:hidden;padding:0px 3px 0px 3px;vertical-align:bottom;&quot;&gt;&lt;/td&gt;&lt;/tr&gt;&lt;tr style=&quot;height:20px;&quot;&gt;&lt;td style=&quot;overflow:hidden;padding:0px 3px 0px 3px;vertical-align:bottom;&quot;&gt;&lt;/td&gt;&lt;td style=&quot;overflow:hidden;padding:0px 3px 0px 3px;vertical-align:bottom;&quot;&gt;&lt;/td&gt;&lt;td style=&quot;overflow:hidden;padding:0px 3px 0px 3px;vertical-align:bottom;&quot;&gt;&lt;/td&gt;&lt;td style=&quot;overflow:hidden;padding:0px 3px 0px 3px;vertical-align:bottom;&quot;&gt;&lt;/td&gt;&lt;td style=&quot;overflow:hidden;padding:0px 3px 0px 3px;vertical-align:bottom;&quot;&gt;&lt;/td&gt;&lt;td style=&quot;overflow:hidden;padding:0px 3px 0px 3px;vertical-align:bottom;&quot;&gt;&lt;/td&gt;&lt;td style=&quot;overflow:hidden;padding:0px 3px 0px 3px;vertical-align:bottom;&quot;&gt;&lt;/td&gt;&lt;/tr&gt;&lt;tr style=&quot;height:20px;&quot;&gt;&lt;td style=&quot;overflow:hidden;padding:0px 3px 0px 3px;vertical-align:bottom;&quot;&gt;&lt;/td&gt;&lt;td style=&quot;overflow:hidden;padding:0px 3px 0px 3px;vertical-align:bottom;&quot;&gt;&lt;/td&gt;&lt;td style=&quot;overflow:hidden;padding:0px 3px 0px 3px;vertical-align:bottom;&quot;&gt;&lt;/td&gt;&lt;td style=&quot;overflow:hidden;padding:0px 3px 0px 3px;vertical-align:bottom;&quot;&gt;&lt;/td&gt;&lt;td style=&quot;overflow:hidden;padding:0px 3px 0px 3px;vertical-align:bottom;&quot;&gt;&lt;/td&gt;&lt;td style=&quot;overflow:hidden;padding:0px 3px 0px 3px;vertical-align:bottom;&quot;&gt;&lt;/td&gt;&lt;td style=&quot;overflow:hidden;padding:0px 3px 0px 3px;vertical-align:bottom;&quot;&gt;&lt;/td&gt;&lt;/tr&gt;&lt;tr style=&quot;height:20px;&quot;&gt;&lt;td style=&quot;overflow:hidden;padding:0px 3px 0px 3px;vertical-align:bottom;&quot;&gt;&lt;/td&gt;&lt;td style=&quot;overflow:hidden;padding:0px 3px 0px 3px;vertical-align:bottom;&quot;&gt;&lt;/td&gt;&lt;td style=&quot;overflow:hidden;padding:0px 3px 0px 3px;vertical-align:bottom;&quot;&gt;&lt;/td&gt;&lt;td style=&quot;overflow:hidden;padding:0px 3px 0px 3px;vertical-align:bottom;&quot;&gt;&lt;/td&gt;&lt;td style=&quot;overflow:hidden;padding:0px 3px 0px 3px;vertical-align:bottom;&quot;&gt;&lt;/td&gt;&lt;td style=&quot;overflow:hidden;padding:0px 3px 0px 3px;vertical-align:bottom;&quot;&gt;&lt;/td&gt;&lt;td style=&quot;overflow:hidden;padding:0px 3px 0px 3px;vertical-align:bottom;&quot;&gt;&lt;/td&gt;&lt;/tr&gt;&lt;tr style=&quot;height:20px;&quot;&gt;&lt;td style=&quot;overflow:hidden;padding:0px 3px 0px 3px;vertical-align:bottom;background-color:#f9cb9c;font-weight:bold;text-align:center;&quot;&gt;StudentName&lt;/td&gt;&lt;td style=&quot;overflow:hidden;padding:0px 3px 0px 3px;vertical-align:bottom;background-color:#f9cb9c;font-weight:bold;text-align:center;&quot;&gt;Skills&lt;/td&gt;&lt;td style=&quot;overflow:hidden;padding:0px 3px 0px 3px;vertical-align:bottom;background-color:#f9cb9c;font-weight:bold;text-align:center;&quot;&gt;INST_ID&lt;/td&gt;&lt;td style=&quot;overflow:hidden;padding:0px 3px 0px 3px;vertical-align:bottom;&quot;&gt;&lt;/td&gt;&lt;td style=&quot;overflow:hidden;padding:0px 3px 0px 3px;vertical-align:bottom;background-color:#f9cb9c;font-weight:bold;text-align:center;&quot;&gt;INST_ID&lt;/td&gt;&lt;td style=&quot;overflow:hidden;padding:0px 3px 0px 3px;vertical-align:bottom;background-color:#f9cb9c;font-weight:bold;text-align:center;&quot;&gt;InstructorName&lt;/td&gt;&lt;td style=&quot;overflow:hidden;padding:0px 3px 0px 3px;vertical-align:bottom;&quot;&gt;&lt;/td&gt;&lt;/tr&gt;&lt;tr style=&quot;height:20px;&quot;&gt;&lt;td style=&quot;overflow:hidden;padding:0px 3px 0px 3px;vertical-align:bottom;&quot;&gt;Alice Smith&lt;/td&gt;&lt;td style=&quot;overflow:hidden;padding:0px 3px 0px 3px;vertical-align:bottom;&quot;&gt;PYHTON&lt;/td&gt;&lt;td style=&quot;overflow:hidden;padding:0px 3px 0px 3px;vertical-align:bottom;text-align:center;&quot;&gt;i1&lt;/td&gt;&lt;td style=&quot;overflow:hidden;padding:0px 3px 0px 3px;vertical-align:bottom;&quot;&gt;&lt;/td&gt;&lt;td style=&quot;overflow:hidden;padding:0px 3px 0px 3px;vertical-align:bottom;text-align:center;&quot;&gt;i1&lt;/td&gt;&lt;td style=&quot;overflow:hidden;padding:0px 3px 0px 3px;vertical-align:bottom;&quot;&gt;Dr. John Doe&lt;/td&gt;&lt;td style=&quot;overflow:hidden;padding:0px 3px 0px 3px;vertical-align:bottom;&quot;&gt;&lt;/td&gt;&lt;/tr&gt;&lt;tr style=&quot;height:20px;&quot;&gt;&lt;td style=&quot;overflow:hidden;padding:0px 3px 0px 3px;vertical-align:bottom;&quot;&gt;Alice Smith&lt;/td&gt;&lt;td style=&quot;overflow:hidden;padding:0px 3px 0px 3px;vertical-align:bottom;&quot;&gt;SQL&lt;/td&gt;&lt;td style=&quot;overflow:hidden;padding:0px 3px 0px 3px;vertical-align:bottom;text-align:center;&quot;&gt;i1&lt;/td&gt;&lt;td style=&quot;overflow:hidden;padding:0px 3px 0px 3px;vertical-align:bottom;&quot;&gt;&lt;/td&gt;&lt;td style=&quot;overflow:hidden;padding:0px 3px 0px 3px;vertical-align:bottom;text-align:center;&quot;&gt;i2&lt;/td&gt;&lt;td style=&quot;overflow:hidden;padding:0px 3px 0px 3px;vertical-align:bottom;&quot;&gt;Dr. Jane White&lt;/td&gt;&lt;td style=&quot;overflow:hidden;padding:0px 3px 0px 3px;vertical-align:bottom;&quot;&gt;&lt;/td&gt;&lt;/tr&gt;&lt;tr style=&quot;height:20px;&quot;&gt;&lt;td style=&quot;overflow:hidden;padding:0px 3px 0px 3px;vertical-align:bottom;&quot;&gt;Alice Smith&lt;/td&gt;&lt;td style=&quot;overflow:hidden;padding:0px 3px 0px 3px;vertical-align:bottom;&quot;&gt;SQL&lt;/td&gt;&lt;td style=&quot;overflow:hidden;padding:0px 3px 0px 3px;vertical-align:bottom;text-align:center;&quot;&gt;i2&lt;/td&gt;&lt;td style=&quot;overflow:hidden;padding:0px 3px 0px 3px;vertical-align:bottom;&quot;&gt;&lt;/td&gt;&lt;td style=&quot;overflow:hidden;padding:0px 3px 0px 3px;vertical-align:bottom;text-align:center;&quot;&gt;i3&lt;/td&gt;&lt;td style=&quot;overflow:hidden;padding:0px 3px 0px 3px;vertical-align:bottom;&quot;&gt;Dr. Emily Brown&lt;/td&gt;&lt;td style=&quot;overflow:hidden;padding:0px 3px 0px 3px;vertical-align:bottom;&quot;&gt;&lt;/td&gt;&lt;/tr&gt;&lt;tr style=&quot;height:20px;&quot;&gt;&lt;td style=&quot;overflow:hidden;padding:0px 3px 0px 3px;vertical-align:bottom;&quot;&gt;Alice Smith&lt;/td&gt;&lt;td style=&quot;overflow:hidden;padding:0px 3px 0px 3px;vertical-align:bottom;&quot;&gt;C#&lt;/td&gt;&lt;td style=&quot;overflow:hidden;padding:0px 3px 0px 3px;vertical-align:bottom;text-align:center;&quot;&gt;i2&lt;/td&gt;&lt;td style=&quot;overflow:hidden;padding:0px 3px 0px 3px;vertical-align:middle;text-align:center;&quot; rowspan=&quot;2&quot; colspan=&quot;1&quot;&gt;&lt;span&gt;&lt;div style=&quot;max-height:40px&quot;&gt;3 NF&lt;/div&gt;&lt;/span&gt;&lt;/td&gt;&lt;td style=&quot;overflow:hidden;padding:0px 3px 0px 3px;vertical-align:bottom;&quot;&gt;&lt;/td&gt;&lt;td style=&quot;overflow:hidden;padding:0px 3px 0px 3px;vertical-align:bottom;&quot;&gt;&lt;/td&gt;&lt;td style=&quot;overflow:hidden;padding:0px 3px 0px 3px;vertical-align:bottom;&quot;&gt;&lt;/td&gt;&lt;/tr&gt;&lt;tr style=&quot;height:20px;&quot;&gt;&lt;td style=&quot;overflow:hidden;padding:0px 3px 0px 3px;vertical-align:bottom;&quot;&gt;Bob Johnson&lt;/td&gt;&lt;td style=&quot;overflow:hidden;padding:0px 3px 0px 3px;vertical-align:bottom;&quot;&gt;JAVA&lt;/td&gt;&lt;td style=&quot;overflow:hidden;padding:0px 3px 0px 3px;vertical-align:bottom;text-align:center;&quot;&gt;i1&lt;/td&gt;&lt;td style=&quot;overflow:hidden;padding:0px 3px 0px 3px;vertical-align:bottom;&quot;&gt;&lt;/td&gt;&lt;td style=&quot;overflow:hidden;padding:0px 3px 0px 3px;vertical-align:bottom;&quot;&gt;&lt;/td&gt;&lt;td style=&quot;overflow:hidden;padding:0px 3px 0px 3px;vertical-align:bottom;&quot;&gt;&lt;/td&gt;&lt;/tr&gt;&lt;tr style=&quot;height:20px;&quot;&gt;&lt;td style=&quot;overflow:hidden;padding:0px 3px 0px 3px;vertical-align:bottom;&quot;&gt;Bob Johnson&lt;/td&gt;&lt;td style=&quot;overflow:hidden;padding:0px 3px 0px 3px;vertical-align:bottom;&quot;&gt;JAVA SCRIPT&lt;/td&gt;&lt;td style=&quot;overflow:hidden;padding:0px 3px 0px 3px;vertical-align:bottom;text-align:center;&quot;&gt;i1&lt;/td&gt;&lt;td style=&quot;overflow:hidden;padding:0px 3px 0px 3px;vertical-align:bottom;&quot;&gt;&lt;/td&gt;&lt;td style=&quot;overflow:hidden;padding:0px 3px 0px 3px;vertical-align:bottom;background-color:#f9cb9c;font-weight:bold;text-align:center;&quot;&gt;INST_ID&lt;/td&gt;&lt;td style=&quot;overflow:hidden;padding:0px 3px 0px 3px;vertical-align:bottom;background-color:#f9cb9c;font-weight:bold;text-align:center;&quot;&gt;InstructorEmail&lt;/td&gt;&lt;td style=&quot;overflow:hidden;padding:0px 3px 0px 3px;vertical-align:bottom;&quot;&gt;&lt;/td&gt;&lt;/tr&gt;&lt;tr style=&quot;height:20px;&quot;&gt;&lt;td style=&quot;overflow:hidden;padding:0px 3px 0px 3px;vertical-align:bottom;&quot;&gt;Bob Johnson&lt;/td&gt;&lt;td style=&quot;overflow:hidden;padding:0px 3px 0px 3px;vertical-align:bottom;&quot;&gt;C++&lt;/td&gt;&lt;td style=&quot;overflow:hidden;padding:0px 3px 0px 3px;vertical-align:bottom;text-align:center;&quot;&gt;i1&lt;/td&gt;&lt;td style=&quot;overflow:hidden;padding:0px 3px 0px 3px;vertical-align:bottom;&quot;&gt;&lt;/td&gt;&lt;td style=&quot;overflow:hidden;padding:0px 3px 0px 3px;vertical-align:bottom;text-align:center;&quot;&gt;i1&lt;/td&gt;&lt;td style=&quot;overflow:hidden;padding:0px 3px 0px 3px;vertical-align:bottom;&quot;&gt;john.doe@university.edu&lt;/td&gt;&lt;td style=&quot;overflow:hidden;padding:0px 3px 0px 3px;vertical-align:bottom;&quot;&gt;&lt;/td&gt;&lt;/tr&gt;&lt;tr style=&quot;height:20px;&quot;&gt;&lt;td style=&quot;overflow:hidden;padding:0px 3px 0px 3px;vertical-align:bottom;&quot;&gt;Carol Lee&lt;/td&gt;&lt;td style=&quot;overflow:hidden;padding:0px 3px 0px 3px;vertical-align:bottom;&quot;&gt;PYHTON&lt;/td&gt;&lt;td style=&quot;overflow:hidden;padding:0px 3px 0px 3px;vertical-align:bottom;text-align:center;&quot;&gt;i3&lt;/td&gt;&lt;td style=&quot;overflow:hidden;padding:0px 3px 0px 3px;vertical-align:bottom;&quot;&gt;&lt;/td&gt;&lt;td style=&quot;overflow:hidden;padding:0px 3px 0px 3px;vertical-align:bottom;text-align:center;&quot;&gt;i2&lt;/td&gt;&lt;td style=&quot;overflow:hidden;padding:0px 3px 0px 3px;vertical-align:bottom;&quot;&gt;jane.white@university.edu&lt;/td&gt;&lt;td style=&quot;overflow:hidden;padding:0px 3px 0px 3px;vertical-align:bottom;&quot;&gt;&lt;/td&gt;&lt;/tr&gt;&lt;tr style=&quot;height:20px;&quot;&gt;&lt;td style=&quot;overflow:hidden;padding:0px 3px 0px 3px;vertical-align:bottom;&quot;&gt;Carol Lee&lt;/td&gt;&lt;td style=&quot;overflow:hidden;padding:0px 3px 0px 3px;vertical-align:bottom;&quot;&gt;R&lt;/td&gt;&lt;td style=&quot;overflow:hidden;padding:0px 3px 0px 3px;vertical-align:bottom;text-align:center;&quot;&gt;i3&lt;/td&gt;&lt;td style=&quot;overflow:hidden;padding:0px 3px 0px 3px;vertical-align:bottom;&quot;&gt;&lt;/td&gt;&lt;td style=&quot;overflow:hidden;padding:0px 3px 0px 3px;vertical-align:bottom;text-align:center;&quot;&gt;i3&lt;/td&gt;&lt;td style=&quot;overflow:hidden;padding:0px 3px 0px 3px;vertical-align:bottom;&quot;&gt;emily.brown@university.edu&lt;/td&gt;&lt;td style=&quot;overflow:hidden;padding:0px 3px 0px 3px;vertical-align:bottom;&quot;&gt;&lt;/td&gt;&lt;/tr&gt;&lt;/tbody&gt;&lt;/table&gt;" link="&lt;table xmlns=&quot;http://www.w3.org/1999/xhtml&quot; cellspacing=&quot;0&quot; cellpadding=&quot;0&quot; dir=&quot;ltr&quot; border=&quot;1&quot; style=&quot;table-layout:fixed;font-size:10pt;font-family:Arial;width:0px;border-collapse:collapse;border:none&quot; data-sheets-root=&quot;1&quot; data-sheets-baot=&quot;1&quot;&gt;&lt;colgroup&gt;&lt;col width=&quot;100&quot;&gt;&lt;col width=&quot;137&quot;&gt;&lt;col width=&quot;100&quot;&gt;&lt;col width=&quot;172&quot;&gt;&lt;col width=&quot;106&quot;&gt;&lt;col width=&quot;201&quot;&gt;&lt;col width=&quot;172&quot;&gt;&lt;/colgroup&gt;&lt;tbody&gt;&lt;tr style=&quot;height:20px;&quot;&gt;&lt;td style=&quot;overflow:hidden;padding:0px 3px 0px 3px;vertical-align:bottom;background-color:#f9cb9c;font-weight:bold;text-align:center;&quot;&gt;StudentName&lt;/td&gt;&lt;td style=&quot;overflow:hidden;padding:0px 3px 0px 3px;vertical-align:bottom;background-color:#f9cb9c;font-weight:bold;text-align:center;&quot;&gt;Skills&lt;/td&gt;&lt;td style=&quot;overflow:hidden;padding:0px 3px 0px 3px;vertical-align:bottom;background-color:#f9cb9c;font-weight:bold;text-align:center;&quot;&gt;InstructorName&lt;/td&gt;&lt;td style=&quot;overflow:hidden;padding:0px 3px 0px 3px;vertical-align:bottom;background-color:#f9cb9c;font-weight:bold;text-align:center;&quot;&gt;InstructorEmail&lt;/td&gt;&lt;td style=&quot;overflow:hidden;padding:0px 3px 0px 3px;vertical-align:bottom;&quot;&gt;&lt;/td&gt;&lt;td style=&quot;overflow:hidden;padding:0px 3px 0px 3px;vertical-align:bottom;&quot;&gt;&lt;/td&gt;&lt;td style=&quot;overflow:hidden;padding:0px 3px 0px 3px;vertical-align:bottom;&quot;&gt;&lt;/td&gt;&lt;/tr&gt;&lt;tr style=&quot;height:20px;&quot;&gt;&lt;td style=&quot;overflow:hidden;padding:0px 3px 0px 3px;vertical-align:bottom;&quot;&gt;Alice Smith&lt;/td&gt;&lt;td style=&quot;overflow:hidden;padding:0px 3px 0px 3px;vertical-align:bottom;&quot;&gt;PYHTON&lt;/td&gt;&lt;td style=&quot;overflow:hidden;padding:0px 3px 0px 3px;vertical-align:bottom;&quot;&gt;Dr. John Doe&lt;/td&gt;&lt;td style=&quot;overflow:hidden;padding:0px 3px 0px 3px;vertical-align:bottom;&quot;&gt;john.doe@university.edu&lt;/td&gt;&lt;td style=&quot;overflow:hidden;padding:0px 3px 0px 3px;vertical-align:bottom;&quot;&gt;&lt;/td&gt;&lt;td style=&quot;overflow:hidden;padding:0px 3px 0px 3px;vertical-align:bottom;&quot;&gt;&lt;/td&gt;&lt;td style=&quot;overflow:hidden;padding:0px 3px 0px 3px;vertical-align:bottom;&quot;&gt;&lt;/td&gt;&lt;/tr&gt;&lt;tr style=&quot;height:20px;&quot;&gt;&lt;td style=&quot;overflow:hidden;padding:0px 3px 0px 3px;vertical-align:bottom;&quot;&gt;Alice Smith&lt;/td&gt;&lt;td style=&quot;overflow:hidden;padding:0px 3px 0px 3px;vertical-align:bottom;&quot;&gt;SQL&lt;/td&gt;&lt;td style=&quot;overflow:hidden;padding:0px 3px 0px 3px;vertical-align:bottom;&quot;&gt;Dr. John Doe&lt;/td&gt;&lt;td style=&quot;overflow:hidden;padding:0px 3px 0px 3px;vertical-align:bottom;&quot;&gt;john.doe@university.edu&lt;/td&gt;&lt;td style=&quot;overflow:hidden;padding:0px 3px 0px 3px;vertical-align:bottom;&quot;&gt;&lt;/td&gt;&lt;td style=&quot;overflow:hidden;padding:0px 3px 0px 3px;vertical-align:bottom;&quot;&gt;&lt;/td&gt;&lt;td style=&quot;overflow:hidden;padding:0px 3px 0px 3px;vertical-align:bottom;&quot;&gt;&lt;/td&gt;&lt;/tr&gt;&lt;tr style=&quot;height:20px;&quot;&gt;&lt;td style=&quot;overflow:hidden;padding:0px 3px 0px 3px;vertical-align:bottom;&quot;&gt;Alice Smith&lt;/td&gt;&lt;td style=&quot;overflow:hidden;padding:0px 3px 0px 3px;vertical-align:bottom;&quot;&gt;SQL&lt;/td&gt;&lt;td style=&quot;overflow:hidden;padding:0px 3px 0px 3px;vertical-align:bottom;&quot;&gt;Dr. Jane White&lt;/td&gt;&lt;td style=&quot;overflow:hidden;padding:0px 3px 0px 3px;vertical-align:bottom;&quot;&gt;jane.white@university.edu&lt;/td&gt;&lt;td style=&quot;overflow:hidden;padding:0px 3px 0px 3px;vertical-align:bottom;&quot;&gt;&lt;/td&gt;&lt;td style=&quot;overflow:hidden;padding:0px 3px 0px 3px;vertical-align:bottom;&quot;&gt;&lt;/td&gt;&lt;td style=&quot;overflow:hidden;padding:0px 3px 0px 3px;vertical-align:bottom;&quot;&gt;&lt;/td&gt;&lt;/tr&gt;&lt;tr style=&quot;height:20px;&quot;&gt;&lt;td style=&quot;overflow:hidden;padding:0px 3px 0px 3px;vertical-align:bottom;&quot;&gt;Alice Smith&lt;/td&gt;&lt;td style=&quot;overflow:hidden;padding:0px 3px 0px 3px;vertical-align:bottom;&quot;&gt;C#&lt;/td&gt;&lt;td style=&quot;overflow:hidden;padding:0px 3px 0px 3px;vertical-align:bottom;&quot;&gt;Dr. Jane White&lt;/td&gt;&lt;td style=&quot;overflow:hidden;padding:0px 3px 0px 3px;vertical-align:bottom;&quot;&gt;jane.white@university.edu&lt;/td&gt;&lt;td style=&quot;overflow:hidden;padding:0px 3px 0px 3px;vertical-align:middle;text-align:center;&quot; rowspan=&quot;2&quot; colspan=&quot;1&quot;&gt;&lt;span&gt;&lt;div style=&quot;max-height:40px&quot;&gt;1NF&lt;/div&gt;&lt;/span&gt;&lt;/td&gt;&lt;td style=&quot;overflow:hidden;padding:0px 3px 0px 3px;vertical-align:bottom;&quot;&gt;&lt;/td&gt;&lt;td style=&quot;overflow:hidden;padding:0px 3px 0px 3px;vertical-align:bottom;&quot;&gt;&lt;/td&gt;&lt;/tr&gt;&lt;tr style=&quot;height:20px;&quot;&gt;&lt;td style=&quot;overflow:hidden;padding:0px 3px 0px 3px;vertical-align:bottom;&quot;&gt;Bob Johnson&lt;/td&gt;&lt;td style=&quot;overflow:hidden;padding:0px 3px 0px 3px;vertical-align:bottom;&quot;&gt;JAVA&lt;/td&gt;&lt;td style=&quot;overflow:hidden;padding:0px 3px 0px 3px;vertical-align:bottom;&quot;&gt;Dr. John Doe&lt;/td&gt;&lt;td style=&quot;overflow:hidden;padding:0px 3px 0px 3px;vertical-align:bottom;&quot;&gt;john.doe@university.edu&lt;/td&gt;&lt;td style=&quot;overflow:hidden;padding:0px 3px 0px 3px;vertical-align:bottom;&quot;&gt;&lt;/td&gt;&lt;td style=&quot;overflow:hidden;padding:0px 3px 0px 3px;vertical-align:bottom;&quot;&gt;&lt;/td&gt;&lt;/tr&gt;&lt;tr style=&quot;height:20px;&quot;&gt;&lt;td style=&quot;overflow:hidden;padding:0px 3px 0px 3px;vertical-align:bottom;&quot;&gt;Bob Johnson&lt;/td&gt;&lt;td style=&quot;overflow:hidden;padding:0px 3px 0px 3px;vertical-align:bottom;&quot;&gt;JAVA SCRIPT&lt;/td&gt;&lt;td style=&quot;overflow:hidden;padding:0px 3px 0px 3px;vertical-align:bottom;&quot;&gt;Dr. John Doe&lt;/td&gt;&lt;td style=&quot;overflow:hidden;padding:0px 3px 0px 3px;vertical-align:bottom;&quot;&gt;john.doe@university.edu&lt;/td&gt;&lt;td style=&quot;overflow:hidden;padding:0px 3px 0px 3px;vertical-align:bottom;&quot;&gt;&lt;/td&gt;&lt;td style=&quot;overflow:hidden;padding:0px 3px 0px 3px;vertical-align:bottom;&quot;&gt;&lt;/td&gt;&lt;td style=&quot;overflow:hidden;padding:0px 3px 0px 3px;vertical-align:bottom;&quot;&gt;&lt;/td&gt;&lt;/tr&gt;&lt;tr style=&quot;height:20px;&quot;&gt;&lt;td style=&quot;overflow:hidden;padding:0px 3px 0px 3px;vertical-align:bottom;&quot;&gt;Bob Johnson&lt;/td&gt;&lt;td style=&quot;overflow:hidden;padding:0px 3px 0px 3px;vertical-align:bottom;&quot;&gt;C++&lt;/td&gt;&lt;td style=&quot;overflow:hidden;padding:0px 3px 0px 3px;vertical-align:bottom;&quot;&gt;Dr. John Doe&lt;/td&gt;&lt;td style=&quot;overflow:hidden;padding:0px 3px 0px 3px;vertical-align:bottom;&quot;&gt;john.doe@university.edu&lt;/td&gt;&lt;td style=&quot;overflow:hidden;padding:0px 3px 0px 3px;vertical-align:bottom;&quot;&gt;&lt;/td&gt;&lt;td style=&quot;overflow:hidden;padding:0px 3px 0px 3px;vertical-align:bottom;&quot;&gt;&lt;/td&gt;&lt;td style=&quot;overflow:hidden;padding:0px 3px 0px 3px;vertical-align:bottom;&quot;&gt;&lt;/td&gt;&lt;/tr&gt;&lt;tr style=&quot;height:20px;&quot;&gt;&lt;td style=&quot;overflow:hidden;padding:0px 3px 0px 3px;vertical-align:bottom;&quot;&gt;Carol Lee&lt;/td&gt;&lt;td style=&quot;overflow:hidden;padding:0px 3px 0px 3px;vertical-align:bottom;&quot;&gt;PYHTON&lt;/td&gt;&lt;td style=&quot;overflow:hidden;padding:0px 3px 0px 3px;vertical-align:bottom;&quot;&gt;Dr. Emily Brown&lt;/td&gt;&lt;td style=&quot;overflow:hidden;padding:0px 3px 0px 3px;vertical-align:bottom;&quot;&gt;emily.brown@university.edu&lt;/td&gt;&lt;td style=&quot;overflow:hidden;padding:0px 3px 0px 3px;vertical-align:bottom;&quot;&gt;&lt;/td&gt;&lt;td style=&quot;overflow:hidden;padding:0px 3px 0px 3px;vertical-align:bottom;&quot;&gt;&lt;/td&gt;&lt;td style=&quot;overflow:hidden;padding:0px 3px 0px 3px;vertical-align:bottom;&quot;&gt;&lt;/td&gt;&lt;/tr&gt;&lt;tr style=&quot;height:20px;&quot;&gt;&lt;td style=&quot;overflow:hidden;padding:0px 3px 0px 3px;vertical-align:bottom;&quot;&gt;Carol Lee&lt;/td&gt;&lt;td style=&quot;overflow:hidden;padding:0px 3px 0px 3px;vertical-align:bottom;&quot;&gt;R&lt;/td&gt;&lt;td style=&quot;overflow:hidden;padding:0px 3px 0px 3px;vertical-align:bottom;&quot;&gt;Dr. Emily Brown&lt;/td&gt;&lt;td style=&quot;overflow:hidden;padding:0px 3px 0px 3px;vertical-align:bottom;&quot;&gt;emily.brown@university.edu&lt;/td&gt;&lt;td style=&quot;overflow:hidden;padding:0px 3px 0px 3px;vertical-align:bottom;&quot;&gt;&lt;/td&gt;&lt;td style=&quot;overflow:hidden;padding:0px 3px 0px 3px;vertical-align:bottom;&quot;&gt;&lt;/td&gt;&lt;td style=&quot;overflow:hidden;padding:0px 3px 0px 3px;vertical-align:bottom;&quot;&gt;&lt;/td&gt;&lt;/tr&gt;&lt;tr style=&quot;height:20px;&quot;&gt;&lt;td style=&quot;overflow:hidden;padding:0px 3px 0px 3px;vertical-align:bottom;&quot;&gt;&lt;/td&gt;&lt;td style=&quot;overflow:hidden;padding:0px 3px 0px 3px;vertical-align:bottom;&quot;&gt;&lt;/td&gt;&lt;td style=&quot;overflow:hidden;padding:0px 3px 0px 3px;vertical-align:bottom;&quot;&gt;&lt;/td&gt;&lt;td style=&quot;overflow:hidden;padding:0px 3px 0px 3px;vertical-align:bottom;&quot;&gt;&lt;/td&gt;&lt;td style=&quot;overflow:hidden;padding:0px 3px 0px 3px;vertical-align:bottom;&quot;&gt;&lt;/td&gt;&lt;td style=&quot;overflow:hidden;padding:0px 3px 0px 3px;vertical-align:bottom;&quot;&gt;&lt;/td&gt;&lt;td style=&quot;overflow:hidden;padding:0px 3px 0px 3px;vertical-align:bottom;&quot;&gt;&lt;/td&gt;&lt;/tr&gt;&lt;tr style=&quot;height:20px;&quot;&gt;&lt;td style=&quot;overflow:hidden;padding:0px 3px 0px 3px;vertical-align:bottom;&quot;&gt;&lt;/td&gt;&lt;td style=&quot;overflow:hidden;padding:0px 3px 0px 3px;vertical-align:bottom;&quot;&gt;&lt;/td&gt;&lt;td style=&quot;overflow:hidden;padding:0px 3px 0px 3px;vertical-align:bottom;&quot;&gt;&lt;/td&gt;&lt;td style=&quot;overflow:hidden;padding:0px 3px 0px 3px;vertical-align:bottom;&quot;&gt;&lt;/td&gt;&lt;td style=&quot;overflow:hidden;padding:0px 3px 0px 3px;vertical-align:bottom;&quot;&gt;&lt;/td&gt;&lt;td style=&quot;overflow:hidden;padding:0px 3px 0px 3px;vertical-align:bottom;&quot;&gt;&lt;/td&gt;&lt;td style=&quot;overflow:hidden;padding:0px 3px 0px 3px;vertical-align:bottom;&quot;&gt;&lt;/td&gt;&lt;/tr&gt;&lt;tr style=&quot;height:20px;&quot;&gt;&lt;td style=&quot;overflow:hidden;padding:0px 3px 0px 3px;vertical-align:bottom;&quot;&gt;&lt;/td&gt;&lt;td style=&quot;overflow:hidden;padding:0px 3px 0px 3px;vertical-align:bottom;&quot;&gt;&lt;/td&gt;&lt;td style=&quot;overflow:hidden;padding:0px 3px 0px 3px;vertical-align:bottom;&quot;&gt;&lt;/td&gt;&lt;td style=&quot;overflow:hidden;padding:0px 3px 0px 3px;vertical-align:bottom;&quot;&gt;&lt;/td&gt;&lt;td style=&quot;overflow:hidden;padding:0px 3px 0px 3px;vertical-align:bottom;&quot;&gt;&lt;/td&gt;&lt;td style=&quot;overflow:hidden;padding:0px 3px 0px 3px;vertical-align:bottom;&quot;&gt;&lt;/td&gt;&lt;td style=&quot;overflow:hidden;padding:0px 3px 0px 3px;vertical-align:bottom;&quot;&gt;&lt;/td&gt;&lt;/tr&gt;&lt;tr style=&quot;height:20px;&quot;&gt;&lt;td style=&quot;overflow:hidden;padding:0px 3px 0px 3px;vertical-align:bottom;&quot;&gt;&lt;/td&gt;&lt;td style=&quot;overflow:hidden;padding:0px 3px 0px 3px;vertical-align:bottom;&quot;&gt;&lt;/td&gt;&lt;td style=&quot;overflow:hidden;padding:0px 3px 0px 3px;vertical-align:bottom;&quot;&gt;&lt;/td&gt;&lt;td style=&quot;overflow:hidden;padding:0px 3px 0px 3px;vertical-align:bottom;&quot;&gt;&lt;/td&gt;&lt;td style=&quot;overflow:hidden;padding:0px 3px 0px 3px;vertical-align:bottom;&quot;&gt;&lt;/td&gt;&lt;td style=&quot;overflow:hidden;padding:0px 3px 0px 3px;vertical-align:bottom;&quot;&gt;&lt;/td&gt;&lt;td style=&quot;overflow:hidden;padding:0px 3px 0px 3px;vertical-align:bottom;&quot;&gt;&lt;/td&gt;&lt;/tr&gt;&lt;tr style=&quot;height:20px;&quot;&gt;&lt;td style=&quot;overflow:hidden;padding:0px 3px 0px 3px;vertical-align:bottom;background-color:#f9cb9c;font-weight:bold;text-align:center;&quot;&gt;StudentName&lt;/td&gt;&lt;td style=&quot;overflow:hidden;padding:0px 3px 0px 3px;vertical-align:bottom;background-color:#f9cb9c;font-weight:bold;text-align:center;&quot;&gt;Skills&lt;/td&gt;&lt;td style=&quot;overflow:hidden;padding:0px 3px 0px 3px;vertical-align:bottom;background-color:#f9cb9c;font-weight:bold;text-align:center;&quot;&gt;INST_ID&lt;/td&gt;&lt;td style=&quot;overflow:hidden;padding:0px 3px 0px 3px;vertical-align:bottom;&quot;&gt;&lt;/td&gt;&lt;td style=&quot;overflow:hidden;padding:0px 3px 0px 3px;vertical-align:bottom;background-color:#f9cb9c;font-weight:bold;text-align:center;&quot;&gt;INST_ID&lt;/td&gt;&lt;td style=&quot;overflow:hidden;padding:0px 3px 0px 3px;vertical-align:bottom;background-color:#f9cb9c;font-weight:bold;text-align:center;&quot;&gt;InstructorName&lt;/td&gt;&lt;td style=&quot;overflow:hidden;padding:0px 3px 0px 3px;vertical-align:bottom;background-color:#f9cb9c;font-weight:bold;text-align:center;&quot;&gt;InstructorEmail&lt;/td&gt;&lt;/tr&gt;&lt;tr style=&quot;height:20px;&quot;&gt;&lt;td style=&quot;overflow:hidden;padding:0px 3px 0px 3px;vertical-align:bottom;&quot;&gt;Alice Smith&lt;/td&gt;&lt;td style=&quot;overflow:hidden;padding:0px 3px 0px 3px;vertical-align:bottom;&quot;&gt;PYHTON&lt;/td&gt;&lt;td style=&quot;overflow:hidden;padding:0px 3px 0px 3px;vertical-align:bottom;text-align:center;&quot;&gt;i1&lt;/td&gt;&lt;td style=&quot;overflow:hidden;padding:0px 3px 0px 3px;vertical-align:bottom;&quot;&gt;&lt;/td&gt;&lt;td style=&quot;overflow:hidden;padding:0px 3px 0px 3px;vertical-align:bottom;text-align:center;&quot;&gt;i1&lt;/td&gt;&lt;td style=&quot;overflow:hidden;padding:0px 3px 0px 3px;vertical-align:bottom;&quot;&gt;Dr. John Doe&lt;/td&gt;&lt;td style=&quot;overflow:hidden;padding:0px 3px 0px 3px;vertical-align:bottom;&quot;&gt;john.doe@university.edu&lt;/td&gt;&lt;/tr&gt;&lt;tr style=&quot;height:20px;&quot;&gt;&lt;td style=&quot;overflow:hidden;padding:0px 3px 0px 3px;vertical-align:bottom;&quot;&gt;Alice Smith&lt;/td&gt;&lt;td style=&quot;overflow:hidden;padding:0px 3px 0px 3px;vertical-align:bottom;&quot;&gt;SQL&lt;/td&gt;&lt;td style=&quot;overflow:hidden;padding:0px 3px 0px 3px;vertical-align:bottom;text-align:center;&quot;&gt;i1&lt;/td&gt;&lt;td style=&quot;overflow:hidden;padding:0px 3px 0px 3px;vertical-align:bottom;&quot;&gt;&lt;/td&gt;&lt;td style=&quot;overflow:hidden;padding:0px 3px 0px 3px;vertical-align:bottom;text-align:center;&quot;&gt;i2&lt;/td&gt;&lt;td style=&quot;overflow:hidden;padding:0px 3px 0px 3px;vertical-align:bottom;&quot;&gt;Dr. Jane White&lt;/td&gt;&lt;td style=&quot;overflow:hidden;padding:0px 3px 0px 3px;vertical-align:bottom;&quot;&gt;jane.white@university.edu&lt;/td&gt;&lt;/tr&gt;&lt;tr style=&quot;height:20px;&quot;&gt;&lt;td style=&quot;overflow:hidden;padding:0px 3px 0px 3px;vertical-align:bottom;&quot;&gt;Alice Smith&lt;/td&gt;&lt;td style=&quot;overflow:hidden;padding:0px 3px 0px 3px;vertical-align:bottom;&quot;&gt;SQL&lt;/td&gt;&lt;td style=&quot;overflow:hidden;padding:0px 3px 0px 3px;vertical-align:bottom;text-align:center;&quot;&gt;i2&lt;/td&gt;&lt;td style=&quot;overflow:hidden;padding:0px 3px 0px 3px;vertical-align:bottom;&quot;&gt;&lt;/td&gt;&lt;td style=&quot;overflow:hidden;padding:0px 3px 0px 3px;vertical-align:bottom;text-align:center;&quot;&gt;i3&lt;/td&gt;&lt;td style=&quot;overflow:hidden;padding:0px 3px 0px 3px;vertical-align:bottom;&quot;&gt;Dr. Emily Brown&lt;/td&gt;&lt;td style=&quot;overflow:hidden;padding:0px 3px 0px 3px;vertical-align:bottom;&quot;&gt;emily.brown@university.edu&lt;/td&gt;&lt;/tr&gt;&lt;tr style=&quot;height:20px;&quot;&gt;&lt;td style=&quot;overflow:hidden;padding:0px 3px 0px 3px;vertical-align:bottom;&quot;&gt;Alice Smith&lt;/td&gt;&lt;td style=&quot;overflow:hidden;padding:0px 3px 0px 3px;vertical-align:bottom;&quot;&gt;C#&lt;/td&gt;&lt;td style=&quot;overflow:hidden;padding:0px 3px 0px 3px;vertical-align:bottom;text-align:center;&quot;&gt;i2&lt;/td&gt;&lt;td style=&quot;overflow:hidden;padding:0px 3px 0px 3px;vertical-align:middle;text-align:center;&quot; rowspan=&quot;2&quot; colspan=&quot;1&quot;&gt;&lt;span&gt;&lt;div style=&quot;max-height:40px&quot;&gt;2NF&lt;/div&gt;&lt;/span&gt;&lt;/td&gt;&lt;td style=&quot;overflow:hidden;padding:0px 3px 0px 3px;vertical-align:bottom;&quot;&gt;&lt;/td&gt;&lt;td style=&quot;overflow:hidden;padding:0px 3px 0px 3px;vertical-align:bottom;&quot;&gt;&lt;/td&gt;&lt;td style=&quot;overflow:hidden;padding:0px 3px 0px 3px;vertical-align:bottom;&quot;&gt;&lt;/td&gt;&lt;/tr&gt;&lt;tr style=&quot;height:20px;&quot;&gt;&lt;td style=&quot;overflow:hidden;padding:0px 3px 0px 3px;vertical-align:bottom;&quot;&gt;Bob Johnson&lt;/td&gt;&lt;td style=&quot;overflow:hidden;padding:0px 3px 0px 3px;vertical-align:bottom;&quot;&gt;JAVA&lt;/td&gt;&lt;td style=&quot;overflow:hidden;padding:0px 3px 0px 3px;vertical-align:bottom;text-align:center;&quot;&gt;i1&lt;/td&gt;&lt;td style=&quot;overflow:hidden;padding:0px 3px 0px 3px;vertical-align:bottom;&quot;&gt;&lt;/td&gt;&lt;td style=&quot;overflow:hidden;padding:0px 3px 0px 3px;vertical-align:bottom;&quot;&gt;&lt;/td&gt;&lt;td style=&quot;overflow:hidden;padding:0px 3px 0px 3px;vertical-align:bottom;&quot;&gt;&lt;/td&gt;&lt;/tr&gt;&lt;tr style=&quot;height:20px;&quot;&gt;&lt;td style=&quot;overflow:hidden;padding:0px 3px 0px 3px;vertical-align:bottom;&quot;&gt;Bob Johnson&lt;/td&gt;&lt;td style=&quot;overflow:hidden;padding:0px 3px 0px 3px;vertical-align:bottom;&quot;&gt;JAVA SCRIPT&lt;/td&gt;&lt;td style=&quot;overflow:hidden;padding:0px 3px 0px 3px;vertical-align:bottom;text-align:center;&quot;&gt;i1&lt;/td&gt;&lt;td style=&quot;overflow:hidden;padding:0px 3px 0px 3px;vertical-align:bottom;&quot;&gt;&lt;/td&gt;&lt;td style=&quot;overflow:hidden;padding:0px 3px 0px 3px;vertical-align:bottom;&quot;&gt;&lt;/td&gt;&lt;td style=&quot;overflow:hidden;padding:0px 3px 0px 3px;vertical-align:bottom;&quot;&gt;&lt;/td&gt;&lt;td style=&quot;overflow:hidden;padding:0px 3px 0px 3px;vertical-align:bottom;&quot;&gt;&lt;/td&gt;&lt;/tr&gt;&lt;tr style=&quot;height:20px;&quot;&gt;&lt;td style=&quot;overflow:hidden;padding:0px 3px 0px 3px;vertical-align:bottom;&quot;&gt;Bob Johnson&lt;/td&gt;&lt;td style=&quot;overflow:hidden;padding:0px 3px 0px 3px;vertical-align:bottom;&quot;&gt;C++&lt;/td&gt;&lt;td style=&quot;overflow:hidden;padding:0px 3px 0px 3px;vertical-align:bottom;text-align:center;&quot;&gt;i1&lt;/td&gt;&lt;td style=&quot;overflow:hidden;padding:0px 3px 0px 3px;vertical-align:bottom;&quot;&gt;&lt;/td&gt;&lt;td style=&quot;overflow:hidden;padding:0px 3px 0px 3px;vertical-align:bottom;&quot;&gt;&lt;/td&gt;&lt;td style=&quot;overflow:hidden;padding:0px 3px 0px 3px;vertical-align:bottom;&quot;&gt;&lt;/td&gt;&lt;td style=&quot;overflow:hidden;padding:0px 3px 0px 3px;vertical-align:bottom;&quot;&gt;&lt;/td&gt;&lt;/tr&gt;&lt;tr style=&quot;height:20px;&quot;&gt;&lt;td style=&quot;overflow:hidden;padding:0px 3px 0px 3px;vertical-align:bottom;&quot;&gt;Carol Lee&lt;/td&gt;&lt;td style=&quot;overflow:hidden;padding:0px 3px 0px 3px;vertical-align:bottom;&quot;&gt;PYHTON&lt;/td&gt;&lt;td style=&quot;overflow:hidden;padding:0px 3px 0px 3px;vertical-align:bottom;text-align:center;&quot;&gt;i3&lt;/td&gt;&lt;td style=&quot;overflow:hidden;padding:0px 3px 0px 3px;vertical-align:bottom;&quot;&gt;&lt;/td&gt;&lt;td style=&quot;overflow:hidden;padding:0px 3px 0px 3px;vertical-align:bottom;&quot;&gt;&lt;/td&gt;&lt;td style=&quot;overflow:hidden;padding:0px 3px 0px 3px;vertical-align:bottom;&quot;&gt;&lt;/td&gt;&lt;td style=&quot;overflow:hidden;padding:0px 3px 0px 3px;vertical-align:bottom;&quot;&gt;&lt;/td&gt;&lt;/tr&gt;&lt;tr style=&quot;height:20px;&quot;&gt;&lt;td style=&quot;overflow:hidden;padding:0px 3px 0px 3px;vertical-align:bottom;&quot;&gt;Carol Lee&lt;/td&gt;&lt;td style=&quot;overflow:hidden;padding:0px 3px 0px 3px;vertical-align:bottom;&quot;&gt;R&lt;/td&gt;&lt;td style=&quot;overflow:hidden;padding:0px 3px 0px 3px;vertical-align:bottom;text-align:center;&quot;&gt;i3&lt;/td&gt;&lt;td style=&quot;overflow:hidden;padding:0px 3px 0px 3px;vertical-align:bottom;&quot;&gt;&lt;/td&gt;&lt;td style=&quot;overflow:hidden;padding:0px 3px 0px 3px;vertical-align:bottom;&quot;&gt;&lt;/td&gt;&lt;td style=&quot;overflow:hidden;padding:0px 3px 0px 3px;vertical-align:bottom;&quot;&gt;&lt;/td&gt;&lt;td style=&quot;overflow:hidden;padding:0px 3px 0px 3px;vertical-align:bottom;&quot;&gt;&lt;/td&gt;&lt;/tr&gt;&lt;tr style=&quot;height:20px;&quot;&gt;&lt;td style=&quot;overflow:hidden;padding:0px 3px 0px 3px;vertical-align:bottom;&quot;&gt;&lt;/td&gt;&lt;td style=&quot;overflow:hidden;padding:0px 3px 0px 3px;vertical-align:bottom;&quot;&gt;&lt;/td&gt;&lt;td style=&quot;overflow:hidden;padding:0px 3px 0px 3px;vertical-align:bottom;&quot;&gt;&lt;/td&gt;&lt;td style=&quot;overflow:hidden;padding:0px 3px 0px 3px;vertical-align:bottom;&quot;&gt;&lt;/td&gt;&lt;td style=&quot;overflow:hidden;padding:0px 3px 0px 3px;vertical-align:bottom;&quot;&gt;&lt;/td&gt;&lt;td style=&quot;overflow:hidden;padding:0px 3px 0px 3px;vertical-align:bottom;&quot;&gt;&lt;/td&gt;&lt;td style=&quot;overflow:hidden;padding:0px 3px 0px 3px;vertical-align:bottom;&quot;&gt;&lt;/td&gt;&lt;/tr&gt;&lt;tr style=&quot;height:20px;&quot;&gt;&lt;td style=&quot;overflow:hidden;padding:0px 3px 0px 3px;vertical-align:bottom;&quot;&gt;&lt;/td&gt;&lt;td style=&quot;overflow:hidden;padding:0px 3px 0px 3px;vertical-align:bottom;&quot;&gt;&lt;/td&gt;&lt;td style=&quot;overflow:hidden;padding:0px 3px 0px 3px;vertical-align:bottom;&quot;&gt;&lt;/td&gt;&lt;td style=&quot;overflow:hidden;padding:0px 3px 0px 3px;vertical-align:bottom;&quot;&gt;&lt;/td&gt;&lt;td style=&quot;overflow:hidden;padding:0px 3px 0px 3px;vertical-align:bottom;&quot;&gt;&lt;/td&gt;&lt;td style=&quot;overflow:hidden;padding:0px 3px 0px 3px;vertical-align:bottom;&quot;&gt;&lt;/td&gt;&lt;td style=&quot;overflow:hidden;padding:0px 3px 0px 3px;vertical-align:bottom;&quot;&gt;&lt;/td&gt;&lt;/tr&gt;&lt;tr style=&quot;height:20px;&quot;&gt;&lt;td style=&quot;overflow:hidden;padding:0px 3px 0px 3px;vertical-align:bottom;&quot;&gt;&lt;/td&gt;&lt;td style=&quot;overflow:hidden;padding:0px 3px 0px 3px;vertical-align:bottom;&quot;&gt;&lt;/td&gt;&lt;td style=&quot;overflow:hidden;padding:0px 3px 0px 3px;vertical-align:bottom;&quot;&gt;&lt;/td&gt;&lt;td style=&quot;overflow:hidden;padding:0px 3px 0px 3px;vertical-align:bottom;&quot;&gt;&lt;/td&gt;&lt;td style=&quot;overflow:hidden;padding:0px 3px 0px 3px;vertical-align:bottom;&quot;&gt;&lt;/td&gt;&lt;td style=&quot;overflow:hidden;padding:0px 3px 0px 3px;vertical-align:bottom;&quot;&gt;&lt;/td&gt;&lt;td style=&quot;overflow:hidden;padding:0px 3px 0px 3px;vertical-align:bottom;&quot;&gt;&lt;/td&gt;&lt;/tr&gt;&lt;tr style=&quot;height:20px;&quot;&gt;&lt;td style=&quot;overflow:hidden;padding:0px 3px 0px 3px;vertical-align:bottom;background-color:#f9cb9c;font-weight:bold;text-align:center;&quot;&gt;StudentName&lt;/td&gt;&lt;td style=&quot;overflow:hidden;padding:0px 3px 0px 3px;vertical-align:bottom;background-color:#f9cb9c;font-weight:bold;text-align:center;&quot;&gt;Skills&lt;/td&gt;&lt;td style=&quot;overflow:hidden;padding:0px 3px 0px 3px;vertical-align:bottom;background-color:#f9cb9c;font-weight:bold;text-align:center;&quot;&gt;INST_ID&lt;/td&gt;&lt;td style=&quot;overflow:hidden;padding:0px 3px 0px 3px;vertical-align:bottom;&quot;&gt;&lt;/td&gt;&lt;td style=&quot;overflow:hidden;padding:0px 3px 0px 3px;vertical-align:bottom;background-color:#f9cb9c;font-weight:bold;text-align:center;&quot;&gt;INST_ID&lt;/td&gt;&lt;td style=&quot;overflow:hidden;padding:0px 3px 0px 3px;vertical-align:bottom;background-color:#f9cb9c;font-weight:bold;text-align:center;&quot;&gt;InstructorName&lt;/td&gt;&lt;td style=&quot;overflow:hidden;padding:0px 3px 0px 3px;vertical-align:bottom;&quot;&gt;&lt;/td&gt;&lt;/tr&gt;&lt;tr style=&quot;height:20px;&quot;&gt;&lt;td style=&quot;overflow:hidden;padding:0px 3px 0px 3px;vertical-align:bottom;&quot;&gt;Alice Smith&lt;/td&gt;&lt;td style=&quot;overflow:hidden;padding:0px 3px 0px 3px;vertical-align:bottom;&quot;&gt;PYHTON&lt;/td&gt;&lt;td style=&quot;overflow:hidden;padding:0px 3px 0px 3px;vertical-align:bottom;text-align:center;&quot;&gt;i1&lt;/td&gt;&lt;td style=&quot;overflow:hidden;padding:0px 3px 0px 3px;vertical-align:bottom;&quot;&gt;&lt;/td&gt;&lt;td style=&quot;overflow:hidden;padding:0px 3px 0px 3px;vertical-align:bottom;text-align:center;&quot;&gt;i1&lt;/td&gt;&lt;td style=&quot;overflow:hidden;padding:0px 3px 0px 3px;vertical-align:bottom;&quot;&gt;Dr. John Doe&lt;/td&gt;&lt;td style=&quot;overflow:hidden;padding:0px 3px 0px 3px;vertical-align:bottom;&quot;&gt;&lt;/td&gt;&lt;/tr&gt;&lt;tr style=&quot;height:20px;&quot;&gt;&lt;td style=&quot;overflow:hidden;padding:0px 3px 0px 3px;vertical-align:bottom;&quot;&gt;Alice Smith&lt;/td&gt;&lt;td style=&quot;overflow:hidden;padding:0px 3px 0px 3px;vertical-align:bottom;&quot;&gt;SQL&lt;/td&gt;&lt;td style=&quot;overflow:hidden;padding:0px 3px 0px 3px;vertical-align:bottom;text-align:center;&quot;&gt;i1&lt;/td&gt;&lt;td style=&quot;overflow:hidden;padding:0px 3px 0px 3px;vertical-align:bottom;&quot;&gt;&lt;/td&gt;&lt;td style=&quot;overflow:hidden;padding:0px 3px 0px 3px;vertical-align:bottom;text-align:center;&quot;&gt;i2&lt;/td&gt;&lt;td style=&quot;overflow:hidden;padding:0px 3px 0px 3px;vertical-align:bottom;&quot;&gt;Dr. Jane White&lt;/td&gt;&lt;td style=&quot;overflow:hidden;padding:0px 3px 0px 3px;vertical-align:bottom;&quot;&gt;&lt;/td&gt;&lt;/tr&gt;&lt;tr style=&quot;height:20px;&quot;&gt;&lt;td style=&quot;overflow:hidden;padding:0px 3px 0px 3px;vertical-align:bottom;&quot;&gt;Alice Smith&lt;/td&gt;&lt;td style=&quot;overflow:hidden;padding:0px 3px 0px 3px;vertical-align:bottom;&quot;&gt;SQL&lt;/td&gt;&lt;td style=&quot;overflow:hidden;padding:0px 3px 0px 3px;vertical-align:bottom;text-align:center;&quot;&gt;i2&lt;/td&gt;&lt;td style=&quot;overflow:hidden;padding:0px 3px 0px 3px;vertical-align:bottom;&quot;&gt;&lt;/td&gt;&lt;td style=&quot;overflow:hidden;padding:0px 3px 0px 3px;vertical-align:bottom;text-align:center;&quot;&gt;i3&lt;/td&gt;&lt;td style=&quot;overflow:hidden;padding:0px 3px 0px 3px;vertical-align:bottom;&quot;&gt;Dr. Emily Brown&lt;/td&gt;&lt;td style=&quot;overflow:hidden;padding:0px 3px 0px 3px;vertical-align:bottom;&quot;&gt;&lt;/td&gt;&lt;/tr&gt;&lt;tr style=&quot;height:20px;&quot;&gt;&lt;td style=&quot;overflow:hidden;padding:0px 3px 0px 3px;vertical-align:bottom;&quot;&gt;Alice Smith&lt;/td&gt;&lt;td style=&quot;overflow:hidden;padding:0px 3px 0px 3px;vertical-align:bottom;&quot;&gt;C#&lt;/td&gt;&lt;td style=&quot;overflow:hidden;padding:0px 3px 0px 3px;vertical-align:bottom;text-align:center;&quot;&gt;i2&lt;/td&gt;&lt;td style=&quot;overflow:hidden;padding:0px 3px 0px 3px;vertical-align:middle;text-align:center;&quot; rowspan=&quot;2&quot; colspan=&quot;1&quot;&gt;&lt;span&gt;&lt;div style=&quot;max-height:40px&quot;&gt;3 NF&lt;/div&gt;&lt;/span&gt;&lt;/td&gt;&lt;td style=&quot;overflow:hidden;padding:0px 3px 0px 3px;vertical-align:bottom;&quot;&gt;&lt;/td&gt;&lt;td style=&quot;overflow:hidden;padding:0px 3px 0px 3px;vertical-align:bottom;&quot;&gt;&lt;/td&gt;&lt;td style=&quot;overflow:hidden;padding:0px 3px 0px 3px;vertical-align:bottom;&quot;&gt;&lt;/td&gt;&lt;/tr&gt;&lt;tr style=&quot;height:20px;&quot;&gt;&lt;td style=&quot;overflow:hidden;padding:0px 3px 0px 3px;vertical-align:bottom;&quot;&gt;Bob Johnson&lt;/td&gt;&lt;td style=&quot;overflow:hidden;padding:0px 3px 0px 3px;vertical-align:bottom;&quot;&gt;JAVA&lt;/td&gt;&lt;td style=&quot;overflow:hidden;padding:0px 3px 0px 3px;vertical-align:bottom;text-align:center;&quot;&gt;i1&lt;/td&gt;&lt;td style=&quot;overflow:hidden;padding:0px 3px 0px 3px;vertical-align:bottom;&quot;&gt;&lt;/td&gt;&lt;td style=&quot;overflow:hidden;padding:0px 3px 0px 3px;vertical-align:bottom;&quot;&gt;&lt;/td&gt;&lt;td style=&quot;overflow:hidden;padding:0px 3px 0px 3px;vertical-align:bottom;&quot;&gt;&lt;/td&gt;&lt;/tr&gt;&lt;tr style=&quot;height:20px;&quot;&gt;&lt;td style=&quot;overflow:hidden;padding:0px 3px 0px 3px;vertical-align:bottom;&quot;&gt;Bob Johnson&lt;/td&gt;&lt;td style=&quot;overflow:hidden;padding:0px 3px 0px 3px;vertical-align:bottom;&quot;&gt;JAVA SCRIPT&lt;/td&gt;&lt;td style=&quot;overflow:hidden;padding:0px 3px 0px 3px;vertical-align:bottom;text-align:center;&quot;&gt;i1&lt;/td&gt;&lt;td style=&quot;overflow:hidden;padding:0px 3px 0px 3px;vertical-align:bottom;&quot;&gt;&lt;/td&gt;&lt;td style=&quot;overflow:hidden;padding:0px 3px 0px 3px;vertical-align:bottom;background-color:#f9cb9c;font-weight:bold;text-align:center;&quot;&gt;INST_ID&lt;/td&gt;&lt;td style=&quot;overflow:hidden;padding:0px 3px 0px 3px;vertical-align:bottom;background-color:#f9cb9c;font-weight:bold;text-align:center;&quot;&gt;InstructorEmail&lt;/td&gt;&lt;td style=&quot;overflow:hidden;padding:0px 3px 0px 3px;vertical-align:bottom;&quot;&gt;&lt;/td&gt;&lt;/tr&gt;&lt;tr style=&quot;height:20px;&quot;&gt;&lt;td style=&quot;overflow:hidden;padding:0px 3px 0px 3px;vertical-align:bottom;&quot;&gt;Bob Johnson&lt;/td&gt;&lt;td style=&quot;overflow:hidden;padding:0px 3px 0px 3px;vertical-align:bottom;&quot;&gt;C++&lt;/td&gt;&lt;td style=&quot;overflow:hidden;padding:0px 3px 0px 3px;vertical-align:bottom;text-align:center;&quot;&gt;i1&lt;/td&gt;&lt;td style=&quot;overflow:hidden;padding:0px 3px 0px 3px;vertical-align:bottom;&quot;&gt;&lt;/td&gt;&lt;td style=&quot;overflow:hidden;padding:0px 3px 0px 3px;vertical-align:bottom;text-align:center;&quot;&gt;i1&lt;/td&gt;&lt;td style=&quot;overflow:hidden;padding:0px 3px 0px 3px;vertical-align:bottom;&quot;&gt;john.doe@university.edu&lt;/td&gt;&lt;td style=&quot;overflow:hidden;padding:0px 3px 0px 3px;vertical-align:bottom;&quot;&gt;&lt;/td&gt;&lt;/tr&gt;&lt;tr style=&quot;height:20px;&quot;&gt;&lt;td style=&quot;overflow:hidden;padding:0px 3px 0px 3px;vertical-align:bottom;&quot;&gt;Carol Lee&lt;/td&gt;&lt;td style=&quot;overflow:hidden;padding:0px 3px 0px 3px;vertical-align:bottom;&quot;&gt;PYHTON&lt;/td&gt;&lt;td style=&quot;overflow:hidden;padding:0px 3px 0px 3px;vertical-align:bottom;text-align:center;&quot;&gt;i3&lt;/td&gt;&lt;td style=&quot;overflow:hidden;padding:0px 3px 0px 3px;vertical-align:bottom;&quot;&gt;&lt;/td&gt;&lt;td style=&quot;overflow:hidden;padding:0px 3px 0px 3px;vertical-align:bottom;text-align:center;&quot;&gt;i2&lt;/td&gt;&lt;td style=&quot;overflow:hidden;padding:0px 3px 0px 3px;vertical-align:bottom;&quot;&gt;jane.white@university.edu&lt;/td&gt;&lt;td style=&quot;overflow:hidden;padding:0px 3px 0px 3px;vertical-align:bottom;&quot;&gt;&lt;/td&gt;&lt;/tr&gt;&lt;tr style=&quot;height:20px;&quot;&gt;&lt;td style=&quot;overflow:hidden;padding:0px 3px 0px 3px;vertical-align:bottom;&quot;&gt;Carol Lee&lt;/td&gt;&lt;td style=&quot;overflow:hidden;padding:0px 3px 0px 3px;vertical-align:bottom;&quot;&gt;R&lt;/td&gt;&lt;td style=&quot;overflow:hidden;padding:0px 3px 0px 3px;vertical-align:bottom;text-align:center;&quot;&gt;i3&lt;/td&gt;&lt;td style=&quot;overflow:hidden;padding:0px 3px 0px 3px;vertical-align:bottom;&quot;&gt;&lt;/td&gt;&lt;td style=&quot;overflow:hidden;padding:0px 3px 0px 3px;vertical-align:bottom;text-align:center;&quot;&gt;i3&lt;/td&gt;&lt;td style=&quot;overflow:hidden;padding:0px 3px 0px 3px;vertical-align:bottom;&quot;&gt;emily.brown@university.edu&lt;/td&gt;&lt;td style=&quot;overflow:hidden;padding:0px 3px 0px 3px;vertical-align:bottom;&quot;&gt;&lt;/td&gt;&lt;/tr&gt;&lt;/tbody&gt;&lt;/table&gt;" id="mauJUShE3Ou6oU76Z420-81">
          <mxCell style="text;whiteSpace=wrap;html=1;" vertex="1" parent="1">
            <mxGeometry x="21" y="400" width="560" height="790" as="geometry" />
          </mxCell>
        </UserObject>
      </root>
    </mxGraphModel>
  </diagram>
</mxfile>
